<svg version="1.1" id="Layer_1" xmlns="http://www.w3.org/2000/svg" xmlns:xlink="http://www.w3.org/1999/xlink" x="0px" y="0px"
	 width="100%" viewBox="0 0 1024 1024" enable-background="new 0 0 1024 1024" xml:space="preserve">
<path fill="#FFFFFF" opacity="1.000000" stroke="none" 
	d="
M1.000000,366.000000 
	C1.000000,244.000015 1.000000,122.500031 1.000000,1.000033 
	C342.333282,1.000022 683.666565,1.000022 1025.000000,1.000011 
	C1025.000000,342.333252 1025.000000,683.666504 1025.000000,1024.999756 
	C683.666809,1024.999878 342.333618,1024.999878 1.000205,1025.000000 
	C1.000000,805.500000 1.000000,586.000000 1.000000,366.000000 
M32.999508,43.523052 
	C32.999508,359.946869 32.999508,676.370667 32.999508,992.705811 
	C353.323395,992.705811 673.059875,992.705811 992.704834,992.705811 
	C992.704834,672.674622 992.704834,352.938110 992.704834,33.296196 
	C672.672607,33.296196 352.936157,33.296196 32.999508,33.296196 
	C32.999508,36.570774 32.999508,39.552185 32.999508,43.523052 
z"/>
<path fill="#000000" opacity="1.000000" stroke="none" 
	d="
M32.999508,43.028320 
	C32.999508,39.552185 32.999508,36.570774 32.999508,33.296196 
	C352.936157,33.296196 672.672607,33.296196 992.704834,33.296196 
	C992.704834,352.938110 992.704834,672.674622 992.704834,992.705811 
	C673.059875,992.705811 353.323395,992.705811 32.999508,992.705811 
	C32.999508,676.370667 32.999508,359.946869 32.999508,43.028320 
M713.356812,802.687561 
	C713.356812,802.687561 713.649902,802.808655 714.093994,803.107666 
	C714.719055,803.430908 715.344055,803.754150 716.235352,804.622437 
	C716.816284,804.770935 717.397278,804.919495 718.329773,805.695190 
	C720.892334,806.392883 723.454895,807.090515 726.671570,807.943237 
	C727.119019,807.942810 727.566528,807.942444 728.731262,808.348022 
	C740.458069,810.083191 751.174500,807.314819 761.018860,801.023682 
	C761.018860,801.023682 761.079041,801.118164 761.721741,801.009705 
	C762.418701,800.527283 763.115662,800.044922 764.352783,799.218018 
	C766.609009,797.240540 768.865234,795.263123 771.721985,793.045471 
	C772.522400,792.047241 773.322876,791.049011 774.701782,789.792236 
	C775.481934,788.561890 776.262085,787.331604 777.680725,785.814697 
	C779.715393,780.537231 781.750061,775.259827 783.939575,769.335999 
	C783.915344,768.894531 783.891174,768.453003 784.101807,767.213257 
	C784.205872,756.407959 784.313049,745.602600 784.413208,734.797302 
	C784.604248,714.194580 784.791199,693.591797 785.000000,673.000000 
	C785.000000,673.000000 784.988892,672.979736 785.816589,672.773499 
	C788.883057,673.455322 791.949463,674.137207 795.614807,675.153564 
	C797.010559,675.776855 798.406250,676.400208 800.083679,677.615601 
	C801.051575,678.088257 802.019409,678.560913 803.168884,679.557556 
	C803.671631,679.750916 804.174316,679.944214 804.973755,680.712158 
	C805.975098,681.493408 806.976440,682.274597 808.218933,683.675049 
	C810.156433,685.779480 812.093872,687.883911 814.116577,690.622375 
	C814.734009,691.440430 815.351440,692.258484 816.072388,693.760620 
	C816.778076,695.168518 817.483704,696.576477 818.061157,698.560974 
	C818.375610,699.040161 818.690063,699.519409 819.027039,700.673218 
	C819.118774,701.108398 819.210571,701.543640 819.249512,702.531311 
	C819.526550,703.011963 819.803528,703.492554 820.029236,704.648438 
	C820.092285,705.093079 820.155396,705.537781 820.094849,706.904846 
	C820.133606,711.305969 820.172363,715.707092 820.084351,720.471497 
	C820.101562,720.727966 820.149231,720.978638 819.905151,721.875427 
	C818.995544,724.921814 818.085938,727.968262 816.847168,731.628906 
	C816.176819,733.066528 815.506470,734.504150 814.262146,736.199951 
	C813.606506,737.474609 812.950806,738.749207 812.065552,740.779480 
	C812.972473,742.499695 813.879395,744.219971 814.786316,745.940186 
	C816.280945,745.120483 817.775635,744.300720 819.296509,743.360535 
	C819.296509,743.360535 819.419128,743.347717 820.053955,743.453735 
	C820.720825,742.678833 821.387695,741.903870 822.683105,740.853210 
	C825.719543,734.563110 828.755981,728.273010 831.945679,721.326843 
	C831.942261,720.878357 831.938782,720.429871 832.355774,719.313477 
	C832.531677,712.877869 832.707581,706.442261 832.952148,699.256165 
	C832.881226,698.510498 832.810364,697.764832 832.795898,696.311890 
	C832.132202,694.167053 831.468506,692.022217 830.885437,689.270630 
	C830.803406,689.083862 830.721375,688.897095 830.403442,688.023804 
	C829.627014,686.339844 828.850586,684.655945 827.962158,682.277100 
	C826.956116,680.524841 825.950012,678.772522 824.878601,676.367676 
	C823.945374,675.208862 823.012146,674.050049 822.019226,672.983887 
	C822.019226,672.983887 822.111816,672.924072 821.938660,672.317200 
	C821.291809,671.545959 820.644897,670.774658 820.000000,670.000000 
	C820.000000,670.000000 819.996582,670.001953 819.819702,669.396118 
	C818.893127,668.565125 817.966553,667.734131 816.901245,666.445007 
	C816.726562,666.143433 816.465515,665.978516 815.938049,665.420349 
	C815.244873,664.813965 814.551697,664.207581 813.692627,663.293274 
	C813.692627,663.293274 813.374573,663.147705 813.075867,662.650208 
	C812.031555,661.824463 810.987244,660.998718 809.537170,659.634033 
	C795.209290,649.103210 784.337769,636.458984 782.926086,617.649292 
	C782.635498,613.777832 779.237183,612.211792 775.662354,612.583496 
	C771.648438,613.000854 769.024048,615.256958 769.039001,619.749146 
	C769.106995,640.176575 769.143250,660.604126 769.022644,681.494263 
	C769.022644,681.494263 769.137451,681.973083 768.971680,682.900757 
	C769.024780,691.941284 769.077820,700.981873 768.998901,710.897156 
	C769.041321,713.254028 769.083740,715.610901 768.955383,718.894104 
	C769.010742,724.603699 769.066101,730.313293 768.984314,736.864258 
	C769.029175,738.566040 769.073975,740.267761 768.951660,742.690369 
	C768.640442,743.546692 768.329224,744.403015 767.259888,745.072205 
	C753.871704,739.249512 740.842102,740.000732 727.509583,747.180420 
	C726.674377,747.794128 725.839172,748.407776 724.340881,749.141418 
	C722.790588,750.384033 721.240295,751.626648 719.046997,753.024109 
	C716.658569,755.590759 714.270081,758.157410 711.320801,760.986084 
	C710.672791,762.000732 710.024780,763.015381 709.077942,764.421265 
	C709.077942,764.421265 708.957703,764.898560 708.367981,765.156006 
	C707.972717,766.109070 707.577454,767.062073 706.817139,768.683594 
	C706.588013,769.374512 706.358887,770.065491 705.709534,771.293091 
	C705.182190,776.191772 704.654907,781.090454 704.051208,786.657532 
	C704.105469,787.099915 704.159729,787.542236 704.101257,788.679504 
	C704.720825,790.124634 705.340393,791.569702 706.040100,793.614197 
	C706.337891,794.084900 706.635681,794.555542 707.054382,795.655762 
	C707.681946,796.467163 708.309448,797.278625 708.989502,798.009216 
	C708.989502,798.009216 708.908569,798.061584 709.070984,798.595886 
	C709.754639,799.207275 710.438354,799.818604 711.297791,800.726624 
	C711.297791,800.726624 711.612122,800.868469 711.819275,801.270203 
	C712.273865,801.654175 712.728455,802.038147 713.356812,802.687561 
M173.109055,420.956451 
	C173.115860,433.405914 173.035248,445.856171 173.149857,458.304657 
	C173.324005,477.216553 173.633606,496.127258 173.420044,515.560608 
	C172.288513,515.683411 171.156967,515.806274 169.616074,515.317139 
	C166.406586,514.622986 163.197098,513.928833 159.126419,513.076172 
	C157.087921,513.125549 155.049423,513.174927 152.306046,513.052490 
	C150.487976,513.449158 148.669907,513.845825 146.259995,514.122314 
	C146.068100,514.183167 145.876221,514.244080 144.950195,514.542725 
	C142.278702,515.642700 139.607193,516.742676 136.238724,517.987183 
	C134.833130,518.793335 133.427521,519.599487 131.401093,520.579895 
	C128.886292,522.700684 126.371490,524.821472 123.269875,527.169312 
	C122.167534,528.414856 121.065193,529.660461 119.363457,531.157593 
	C118.837685,532.076843 118.311913,532.996094 117.339043,534.065491 
	C117.118889,534.307800 116.995316,534.592102 116.338837,535.220154 
	C114.638031,539.150269 112.937225,543.080444 111.068863,547.667053 
	C111.071602,548.117859 111.074333,548.568665 110.684097,549.738220 
	C108.986435,558.256348 110.429947,565.893188 117.088348,572.563354 
	C117.261269,572.867249 117.522217,573.030151 118.150414,573.676392 
	C120.082344,574.830017 122.014267,575.983643 124.214577,577.683960 
	C124.806526,577.798035 125.398476,577.912170 126.392525,578.630371 
	C128.265411,579.014465 130.138306,579.398621 132.664886,579.940735 
	C133.111786,579.926331 133.558701,579.911865 134.735184,580.176575 
	C137.825363,580.073669 140.915558,579.970703 144.670959,579.944702 
	C145.110046,579.885132 145.549133,579.825500 146.769928,579.874268 
	C151.866516,577.964844 156.963104,576.055481 162.719193,574.004700 
	C163.473160,573.555908 164.227127,573.107056 165.531891,572.626953 
	C166.041656,572.133850 166.551407,571.640747 167.720413,570.946228 
	C170.118805,568.861206 172.517212,566.776184 175.500198,564.490417 
	C176.367111,563.340027 177.234009,562.189697 178.693420,560.787354 
	C179.500717,559.538635 180.308014,558.289917 181.684738,556.821289 
	C181.916336,556.262573 182.147949,555.703857 182.864029,554.705078 
	C183.568222,553.134277 184.272415,551.563416 185.496521,549.596375 
	C185.914078,548.392639 186.331635,547.188843 186.952209,545.351013 
	C186.993134,544.909241 187.034058,544.467407 187.681702,543.525024 
	C188.110580,538.080078 188.887329,532.636536 188.910309,527.189880 
	C189.033310,498.035278 188.947281,468.879822 189.016922,439.724884 
	C189.021439,437.839325 189.724365,435.955414 190.015198,434.018738 
	C190.015198,434.018738 190.067932,434.105530 190.654510,434.017731 
	C191.526031,433.609589 192.397552,433.201447 193.782043,432.873566 
	C193.937653,432.797791 194.093262,432.722046 194.773788,432.600159 
	C195.226776,432.335602 195.679749,432.071045 196.739349,431.900696 
	C196.932281,431.832489 197.125214,431.764313 198.070404,431.433655 
	C210.759216,427.224091 223.448044,423.014526 236.814133,418.895844 
	C237.029602,418.821930 237.245056,418.748016 237.859070,418.530701 
	C237.859070,418.530701 238.009567,418.134796 238.675858,418.018921 
	C239.112747,417.920654 239.549652,417.822418 240.459259,417.825134 
	C240.811859,417.721466 241.007904,417.486908 241.705399,417.039246 
	C242.132263,416.933350 242.559143,416.827484 243.736053,416.701538 
	C247.693619,415.409882 251.591293,413.841064 255.638977,412.966522 
	C257.201324,412.628967 259.104218,413.867676 260.710541,414.701202 
	C260.710541,414.701202 260.915833,414.976471 260.666107,415.888397 
	C260.822418,437.581268 260.978729,459.274109 260.970795,481.645691 
	C261.025513,482.104614 261.080261,482.563538 261.005432,483.839844 
	C261.049133,485.215485 261.092804,486.591095 260.970306,488.644806 
	C261.025238,489.103546 261.080139,489.562317 261.017853,490.499390 
	C261.017853,490.499390 261.188446,490.961365 261.046112,491.806976 
	C259.824371,492.188324 258.435486,493.157013 257.405670,492.863922 
	C238.583252,487.507538 218.767242,502.133789 213.571869,518.162842 
	C208.633499,533.398987 216.353516,545.825684 232.226685,547.160583 
	C245.519409,548.278503 256.359955,543.074036 265.627350,532.899170 
	C266.339355,531.928040 267.051361,530.956970 268.230713,529.625854 
	C268.498871,529.113159 268.767059,528.600525 269.661255,527.781494 
	C270.814117,525.190369 271.967010,522.599182 273.706390,519.567139 
	C273.739136,519.086487 273.771912,518.605896 274.056305,517.612305 
	C274.298462,516.737549 274.540619,515.862732 274.947418,514.328674 
	C274.936371,513.877319 274.925323,513.425903 275.236298,512.214478 
	C275.476715,510.256592 275.933868,508.297668 275.924744,506.340942 
	C275.801910,479.936615 275.648743,453.532318 275.430786,427.128571 
	C275.275970,408.376404 275.012146,389.625153 274.908447,370.139496 
	C274.336395,369.400146 273.764343,368.660767 272.916290,367.313568 
	C271.940735,366.946747 270.965179,366.579926 269.335358,366.061737 
	C268.893890,366.114471 268.452454,366.167206 267.433563,366.077972 
	C266.952362,366.374847 266.471161,366.671722 265.318359,367.007568 
	C264.883606,367.100830 264.448822,367.194092 263.265472,367.329376 
	C262.819427,367.537994 262.390472,367.800873 261.924896,367.947449 
	C242.572189,374.041626 223.216171,380.125305 203.237930,386.113312 
	C203.042419,386.190094 202.846893,386.266876 202.199982,386.440186 
	C202.199982,386.440186 202.008209,386.860077 201.338089,386.967743 
	C200.895676,387.055511 200.453278,387.143311 199.253342,387.244293 
	C198.666870,387.495667 198.089691,387.771973 197.492477,387.994537 
	C190.325180,390.665894 183.154907,393.329315 175.368362,396.178070 
	C174.906158,397.116638 174.443954,398.055206 173.476120,399.315918 
	C173.390121,399.880829 173.304123,400.445740 173.062683,401.924164 
	C173.112686,405.945892 173.162689,409.967590 173.042984,414.644623 
	C173.111435,416.440613 173.179901,418.236603 173.109055,420.956451 
M337.950623,181.647018 
	C338.007935,182.105072 338.065247,182.563126 337.987000,183.947250 
	C338.033020,196.621277 338.079071,209.295288 337.954071,222.769089 
	C338.011444,223.853470 338.068817,224.937851 337.992218,226.917801 
	C338.036865,229.934860 338.081512,232.951920 337.955444,236.835144 
	C337.955444,239.197922 337.955444,241.560684 337.955444,244.591400 
	C335.201141,243.460251 333.563202,242.783966 331.922546,242.114334 
	C311.106232,233.618317 291.353302,237.670090 275.775269,253.815704 
	C263.252991,266.794312 263.602997,287.564514 278.459412,298.036346 
	C291.468475,307.206024 305.275269,308.304626 319.781708,302.910767 
	C338.939270,295.787537 352.694672,282.396942 353.516724,261.823944 
	C355.023926,224.102798 353.969391,186.278229 353.909760,148.496902 
	C353.902771,144.071213 351.342499,141.473557 346.994659,140.822662 
	C342.354828,140.128052 339.430420,142.247192 337.956665,147.662323 
	C338.005096,148.100143 338.053528,148.537979 337.924408,149.726395 
	C337.985413,150.490570 338.046387,151.254730 337.972076,152.802551 
	C338.020355,153.858917 338.068634,154.915283 337.945374,156.647507 
	C338.002960,157.105179 338.060547,157.562836 337.982910,158.862701 
	C338.028839,160.565384 338.074799,162.268082 337.947906,164.723663 
	C338.005524,165.489548 338.063141,166.255432 337.984619,167.938904 
	C338.030365,172.282776 338.076080,176.626633 337.950623,181.647018 
M704.057739,257.886810 
	C704.057739,269.972992 704.057739,282.059174 704.057739,294.131195 
	C697.845154,293.039825 692.216919,291.254761 686.574341,291.208038 
	C669.101562,291.063354 648.530762,305.168549 642.342651,321.469818 
	C634.857727,341.187469 643.937012,359.095856 667.313782,360.009644 
	C682.127258,360.588715 695.019104,355.396057 705.670471,345.491119 
	C713.787781,337.942627 719.459961,328.630859 720.072754,316.062225 
	C720.006836,287.384888 719.940918,258.707550 720.046021,229.230560 
	C719.988831,228.146362 719.931641,227.062164 720.008240,225.082504 
	C719.959290,222.066223 719.910278,219.049927 720.155945,215.313431 
	C723.558777,212.039917 726.641907,215.022644 729.676819,215.980530 
	C747.004272,221.449509 761.266052,238.125671 760.197693,258.683228 
	C759.653870,269.149353 756.469971,278.331787 750.707703,286.859467 
	C748.190308,290.584961 749.142700,295.610077 752.557373,295.630157 
	C754.782410,295.643250 757.411133,293.819733 759.193787,292.120941 
	C781.112671,271.233582 782.021973,231.665863 760.823730,209.574631 
	C753.837463,202.294022 745.814697,196.012070 738.317078,189.217026 
	C728.686279,180.488754 721.263367,170.416199 718.906067,157.237640 
	C718.241943,153.524612 715.518188,151.248657 712.032959,151.252350 
	C708.449768,151.256134 704.766907,152.370773 703.958679,157.491180 
	C704.002319,157.654373 704.046021,157.817551 703.911438,158.652969 
	C703.974365,159.108353 704.037292,159.563736 703.957642,160.944565 
	C704.014648,177.618912 704.071594,194.293243 703.956665,211.767700 
	C704.013489,212.852768 704.070312,213.937851 703.992920,215.948883 
	C704.040894,223.621216 704.088867,231.293549 703.970642,239.867416 
	C704.027405,242.919739 704.084106,245.972046 704.011658,249.898529 
	C704.071533,252.249619 704.131348,254.600723 704.057739,257.886810 
M274.141693,767.072021 
	C274.235657,759.614746 274.388580,752.157654 274.412933,744.700134 
	C274.499115,718.329651 274.541321,691.959045 275.176056,665.266907 
	C277.249420,665.507690 279.389832,665.496338 281.385986,666.027283 
	C309.359344,673.467957 323.592926,697.607666 315.807526,725.421814 
	C313.986847,731.926270 310.074219,737.910767 306.681183,743.882812 
	C304.896881,747.023315 304.139099,749.697388 306.947021,752.309326 
	C309.814789,754.976807 312.087036,752.606323 314.244171,750.951172 
	C315.687408,749.843872 317.024628,748.540466 318.196198,747.145813 
	C331.961151,730.760132 336.517639,712.013000 332.370117,691.099915 
	C328.714661,672.668274 317.988037,659.096252 302.839905,648.679260 
	C289.766205,639.688843 277.329376,630.286011 272.449463,613.997925 
	C271.919189,612.228027 268.540955,610.507568 266.295593,610.216736 
	C261.065979,609.539368 258.096985,613.000732 258.112732,618.852844 
	C258.220734,659.003906 258.349518,699.154968 258.438263,739.306091 
	C258.442780,741.350586 258.140137,743.395813 257.958282,745.725403 
	C255.870621,745.266785 254.416748,745.034851 253.014343,744.626343 
	C227.970444,737.330994 203.341827,751.723755 194.419754,773.252625 
	C187.232330,790.595825 195.911804,808.681641 212.948349,810.780151 
	C229.449158,812.812683 244.460876,808.312683 257.134918,797.284607 
	C266.072968,789.507324 272.641968,780.226990 274.141693,767.072021 
M877.049377,486.118347 
	C876.991638,482.405762 876.933838,478.693207 876.999695,474.502808 
	C876.999695,474.502808 876.876099,474.025024 877.045349,473.349731 
	C876.988708,472.892578 876.932068,472.435425 877.008911,471.195435 
	C876.964417,470.140442 876.919922,469.085419 877.045959,467.102936 
	C876.984680,456.394104 876.923401,445.685242 876.992798,434.194122 
	C876.950012,433.140350 876.907288,432.086609 877.030151,430.179138 
	C876.974182,428.444946 876.918213,426.710724 876.991821,424.246521 
	C876.947449,423.509033 876.903076,422.771545 877.025391,421.106262 
	C876.969849,415.063568 876.914307,409.020905 876.975342,402.501251 
	C876.975342,402.501251 876.810181,402.038879 876.942932,401.105072 
	C876.945129,388.956512 876.963562,376.807922 876.943054,364.659393 
	C876.932007,358.126892 873.712158,355.743927 867.310913,357.612122 
	C861.343140,359.353912 855.405884,361.203125 849.475037,363.068146 
	C821.808228,371.768311 794.119507,380.401703 766.534302,389.353851 
	C764.022644,390.168915 762.191223,393.079773 759.601074,395.638702 
	C759.652222,415.115204 759.682739,434.591766 759.760193,454.068146 
	C759.840881,474.372253 759.966797,494.676178 759.695190,515.668884 
	C758.283081,515.532898 756.761597,515.692688 755.475098,515.217041 
	C732.729309,506.807770 704.910156,522.431091 697.410583,544.564026 
	C690.798950,564.076477 701.396973,579.801819 722.029602,580.479492 
	C737.660645,580.992798 751.219849,575.328125 762.065002,564.106873 
	C769.291321,556.629883 774.446777,547.832703 775.044861,536.056824 
	C774.988342,502.381653 774.931763,468.706451 775.105042,434.340393 
	C776.515930,433.270355 777.770447,431.719177 779.361145,431.202148 
	C805.082336,422.841797 830.829956,414.561157 856.641724,406.486328 
	C858.141296,406.017212 860.238586,407.458832 861.910339,408.937042 
	C861.974548,434.615967 862.038757,460.294922 861.913391,486.740051 
	C860.704773,486.972656 859.319885,487.712738 858.313416,487.363220 
	C836.616211,479.828552 811.059814,495.948517 804.364990,516.242004 
	C798.281189,534.683533 809.084717,549.777161 828.497375,550.081848 
	C842.684265,550.304443 854.556763,544.725952 864.210327,534.625916 
	C871.801147,526.684082 876.793152,517.356140 877.005920,505.073120 
	C876.962830,501.725525 876.919739,498.377960 877.050964,494.231171 
	C876.993469,493.146912 876.936035,492.062622 877.015259,490.195862 
	C876.969055,489.140686 876.922852,488.085541 877.049377,486.118347 
M475.025574,276.053986 
	C474.971039,244.380371 474.916473,212.706772 475.150574,180.363068 
	C476.504608,179.543015 477.758942,178.376083 479.227356,177.954117 
	C508.412872,169.567474 537.616394,161.243210 566.834534,152.970917 
	C572.105469,151.478607 573.034790,152.253891 573.039246,157.635559 
	C573.058777,180.941177 573.057434,204.246811 573.047180,227.552429 
	C573.046692,228.664276 572.888367,229.776062 572.788940,231.079269 
	C571.726562,230.916916 570.856018,230.960327 570.140015,230.648758 
	C549.708313,221.758255 524.011047,236.768692 516.516907,255.076675 
	C509.217865,272.907898 518.255859,288.356445 534.493164,291.247589 
	C548.919556,293.816284 561.410156,289.472046 572.333374,280.683350 
	C581.318359,273.454071 587.270996,264.024048 588.049866,251.058670 
	C587.992554,227.049286 587.935303,203.039886 588.051636,178.353668 
	C587.993530,177.895172 587.935425,177.436691 588.015808,176.195892 
	C587.969482,175.140717 587.923218,174.085541 588.052734,172.231308 
	C587.993896,171.146957 587.935059,170.062622 588.010437,168.247345 
	C587.964661,167.508484 587.918823,166.769623 588.044800,165.231018 
	C587.987122,164.146530 587.929443,163.062042 588.007874,161.063232 
	C587.961670,157.052612 587.915466,153.041977 588.039612,148.178680 
	C587.982117,146.444946 587.924622,144.711227 588.001343,142.055191 
	C587.954590,137.047897 587.907837,132.040604 588.029053,126.232460 
	C587.973206,125.147285 587.917358,124.062103 587.993835,122.246765 
	C587.950012,121.508690 587.906128,120.770607 588.030579,119.124329 
	C587.975159,115.742912 587.919739,112.361488 587.981506,108.501152 
	C587.981506,108.501152 587.812683,108.037903 587.914673,107.298912 
	C586.105591,102.317154 582.442078,102.444855 578.209290,103.600288 
	C540.995239,113.758659 503.799316,123.986816 466.509552,133.860260 
	C461.086700,135.296112 459.895813,138.170197 459.912262,143.045334 
	C460.032471,178.674225 460.028290,214.303543 460.048981,249.932724 
	C460.049896,251.512619 459.910889,253.092575 459.900299,253.319397 
	C451.905151,252.874405 444.108063,251.162323 436.745880,252.289917 
	C420.096710,254.839905 407.403168,263.830719 400.679596,279.757355 
	C392.809357,298.400116 402.582428,314.653076 422.603821,317.055786 
	C437.399658,318.831360 450.055511,313.851898 460.809326,304.353333 
	C468.851685,297.249725 474.438324,288.285889 475.025574,276.053986 
M583.968872,706.290588 
	C581.896484,701.093140 580.117432,700.067383 574.960266,701.651855 
	C536.198303,713.561279 497.468140,725.574646 458.683990,737.411072 
	C453.485138,738.997742 451.857330,742.091187 451.879852,747.286194 
	C452.049225,786.434937 452.028137,825.584412 452.066223,864.733704 
	C452.067902,866.467896 452.066406,868.202148 452.066406,870.435791 
	C450.272400,869.865173 449.185089,869.582825 448.144897,869.179138 
	C423.897705,859.769226 395.640930,877.036560 388.537567,898.837585 
	C383.084656,915.573181 391.399200,930.563721 408.188263,933.859558 
	C417.932739,935.772461 427.256439,934.081177 436.331085,930.493286 
	C452.064880,924.272583 468.917786,906.944336 468.194275,883.617249 
	C467.197998,851.494995 467.980072,819.318604 467.899200,787.165588 
	C467.891235,783.997253 468.418457,781.947021 471.908722,780.884949 
	C502.358551,771.619385 532.755798,762.181152 563.182800,752.840149 
	C568.639221,751.165039 569.040283,751.541138 569.042603,757.432251 
	C569.051086,779.086365 569.047913,800.740479 569.048950,822.394592 
	C569.049194,828.202026 569.048950,834.009460 569.048950,840.353760 
	C567.337219,839.912781 566.094543,839.652649 564.889771,839.272217 
	C558.319885,837.198425 551.730896,836.246765 544.876953,838.017456 
	C527.707153,842.453308 514.600403,851.673096 508.722321,869.067688 
	C503.477661,884.587708 511.701630,899.498779 527.361572,902.229736 
	C543.909973,905.115479 558.114136,900.110718 570.226746,889.059143 
	C577.821045,882.130005 582.997681,873.595459 584.077759,862.168396 
	C584.228027,860.348694 584.513489,858.528687 584.508484,856.709412 
	C584.421204,824.939941 584.313171,793.170471 584.177429,761.401123 
	C584.100037,743.279541 583.964783,725.158142 583.968872,706.290588 
M525.748840,657.380493 
	C527.548584,650.640869 529.026184,643.795288 531.201904,637.179321 
	C542.671570,602.303223 561.282288,572.152771 590.186707,548.888428 
	C623.924316,521.734009 663.846130,513.172913 705.687988,510.183258 
	C707.437439,510.058289 709.057373,508.122406 710.737671,507.030212 
	C709.182312,505.940369 707.736633,504.129639 706.054443,503.873779 
	C691.472229,501.656006 676.734741,500.310638 662.261963,497.557129 
	C640.546204,493.425598 620.097290,485.590729 601.617371,473.233795 
	C567.969971,450.734802 546.205566,419.279724 533.092468,381.438141 
	C524.970764,358.000458 520.770752,333.858337 520.155640,309.045044 
	C520.104736,306.990692 517.747375,304.993500 516.461609,302.969757 
	C515.395935,304.970337 513.649292,306.884918 513.383911,308.986542 
	C512.306580,317.516083 511.905365,326.130280 510.854004,334.663910 
	C507.138763,364.819916 498.668304,393.460876 482.665100,419.516388 
	C465.047577,448.200256 441.848145,470.873840 410.861969,484.919922 
	C382.863678,497.611603 353.127075,502.241913 322.733856,503.733551 
	C320.292297,503.853394 317.437561,503.792480 318.043274,507.099426 
	C318.298035,508.490173 320.835419,510.414948 322.394989,510.472412 
	C347.341888,511.391449 371.807922,514.837524 395.535950,522.949097 
	C437.778473,537.389954 467.868134,565.711731 488.645111,604.519958 
	C504.965057,635.003174 511.902771,667.963928 513.282043,702.262756 
	C513.388855,704.919067 513.588379,707.877075 516.771545,707.626160 
	C518.088257,707.522278 519.979309,704.510437 520.225891,702.638794 
	C522.174622,687.846741 523.789185,673.010681 525.748840,657.380493 
M372.652374,829.889648 
	C385.425842,834.096252 398.165955,838.408752 410.990906,842.452087 
	C415.494324,843.871948 420.833740,840.623413 421.913025,836.361694 
	C423.301758,830.878052 420.668762,826.437195 415.227539,825.039978 
	C411.887238,824.182251 408.520752,823.402649 405.228088,822.386658 
	C375.105530,813.092468 347.351288,799.020874 321.609283,780.884888 
	C315.762573,776.765808 311.359619,777.105530 307.838867,781.724243 
	C304.477386,786.134094 305.569061,791.304443 310.859009,795.279724 
	C329.691956,809.432312 350.465942,820.130188 372.652374,829.889648 
M228.103836,685.241882 
	C227.963547,682.266968 228.848907,678.700073 227.525833,676.407898 
	C212.704025,650.730347 201.320282,623.778564 195.534439,594.576477 
	C194.275131,588.220520 189.654510,585.532288 183.831757,587.089233 
	C179.276169,588.307312 176.931152,593.101868 178.242813,598.760864 
	C185.217621,628.852966 195.995651,657.449829 211.805222,684.071411 
	C216.157211,691.399719 221.523453,692.062500 228.103836,685.241882 
M622.765747,839.302368 
	C639.998535,832.040955 657.284912,824.902832 674.435669,817.452393 
	C680.574341,814.785645 682.298157,810.203430 679.941528,805.129089 
	C677.681702,800.263428 672.887329,799.006348 666.924988,801.519165 
	C650.490967,808.445435 634.034851,815.319458 617.570251,822.172852 
	C613.213989,823.986206 610.329895,828.322144 611.095459,832.179688 
	C612.124146,837.363647 616.144165,840.124084 622.765747,839.302368 
M836.057190,592.546265 
	C831.602112,605.750366 827.217834,618.978943 822.658630,632.146973 
	C820.720886,637.743530 822.340637,642.785522 827.069702,644.656433 
	C832.216919,646.692688 836.597046,644.602234 838.974243,638.963074 
	C846.466553,621.190430 852.177673,602.870850 855.833313,583.923889 
	C856.830688,578.754578 854.138367,574.192017 849.521240,573.121216 
	C844.860901,572.040405 840.410950,574.693848 838.974854,579.718933 
	C837.847900,583.662354 837.084045,587.709473 836.057190,592.546265 
M643.569885,202.936630 
	C649.940735,205.934341 656.324768,208.904465 662.678406,211.938278 
	C668.041687,214.499207 672.966797,212.710052 675.261902,207.291199 
	C677.153992,202.823959 675.885010,198.117538 671.132568,196.075592 
	C655.148926,189.207947 639.058655,182.570175 622.844055,176.269287 
	C617.634216,174.244781 612.367432,177.589020 611.130066,182.563126 
	C609.912598,187.457138 612.989197,192.144943 618.287354,193.946915 
	C626.510803,196.743820 634.671509,199.725403 643.569885,202.936630 
M232.246780,339.807922 
	C237.603241,331.303406 242.867813,322.739105 248.348358,314.315308 
	C252.022842,308.667511 251.798584,304.053955 247.291870,300.961670 
	C242.694351,297.807068 237.544571,298.779236 234.188141,304.214783 
	C225.630081,318.074097 217.287018,332.069946 209.088913,346.145721 
	C206.112549,351.255981 207.644028,356.282410 212.230164,358.704987 
	C216.916214,361.180389 221.845123,359.565613 224.672592,354.430786 
	C227.200409,349.840088 229.528992,345.139709 232.246780,339.807922 
M799.814514,340.752686 
	C801.873230,344.856232 803.922302,348.964661 805.993042,353.062103 
	C808.826294,358.668457 813.472534,360.576935 818.422180,358.186981 
	C823.337097,355.813812 825.070068,351.247131 822.030518,345.744507 
	C814.160034,331.496094 806.002014,317.399200 797.628418,303.439941 
	C794.754700,298.649231 789.186584,297.777924 785.059753,300.572906 
	C780.650085,303.559509 779.939148,308.567535 783.057617,313.581879 
	C788.546326,322.407532 793.952332,331.284637 799.814514,340.752686 
M430.047485,191.854660 
	C435.216675,188.940231 437.236420,184.630157 435.546661,180.119659 
	C434.046204,176.114471 429.484314,173.067154 425.843994,174.234085 
	C411.985107,178.676636 398.139374,183.176865 384.413513,188.009949 
	C378.713135,190.017105 376.967407,194.321808 378.919708,199.214554 
	C381.098389,204.674835 385.446930,206.236588 391.405853,204.238373 
	C403.984497,200.020309 416.641479,196.035873 430.047485,191.854660 
z"/>
<path fill="#F3EFEC" opacity="1.000000" stroke="none" 
	d="
M525.627686,657.784302 
	C523.789185,673.010681 522.174622,687.846741 520.225891,702.638794 
	C519.979309,704.510437 518.088257,707.522278 516.771545,707.626160 
	C513.588379,707.877075 513.388855,704.919067 513.282043,702.262756 
	C511.902771,667.963928 504.965057,635.003174 488.645111,604.519958 
	C467.868134,565.711731 437.778473,537.389954 395.535950,522.949097 
	C371.807922,514.837524 347.341888,511.391449 322.394989,510.472412 
	C320.835419,510.414948 318.298035,508.490173 318.043274,507.099426 
	C317.437561,503.792480 320.292297,503.853394 322.733856,503.733551 
	C353.127075,502.241913 382.863678,497.611603 410.861969,484.919922 
	C441.848145,470.873840 465.047577,448.200256 482.665100,419.516388 
	C498.668304,393.460876 507.138763,364.819916 510.854004,334.663910 
	C511.905365,326.130280 512.306580,317.516083 513.383911,308.986542 
	C513.649292,306.884918 515.395935,304.970337 516.461609,302.969757 
	C517.747375,304.993500 520.104736,306.990692 520.155640,309.045044 
	C520.770752,333.858337 524.970764,358.000458 533.092468,381.438141 
	C546.205566,419.279724 567.969971,450.734802 601.617371,473.233795 
	C620.097290,485.590729 640.546204,493.425598 662.261963,497.557129 
	C676.734741,500.310638 691.472229,501.656006 706.054443,503.873779 
	C707.736633,504.129639 709.182312,505.940369 710.737671,507.030212 
	C709.057373,508.122406 707.437439,510.058289 705.687988,510.183258 
	C663.846130,513.172913 623.924316,521.734009 590.186707,548.888428 
	C561.282288,572.152771 542.671570,602.303223 531.201904,637.179321 
	C529.026184,643.795288 527.548584,650.640869 525.627686,657.784302 
M429.655029,500.127686 
	C422.058044,502.500854 414.461029,504.873993 406.169586,507.464081 
	C407.564758,507.756622 408.204254,507.890717 408.843719,508.024750 
	C450.732330,516.805359 481.474640,539.590393 499.004639,579.288696 
	C506.565063,596.409973 512.513000,614.019104 516.736511,633.057922 
	C517.248352,631.726624 517.560730,631.163574 517.682068,630.562073 
	C521.318176,612.536743 527.495667,595.371460 534.913147,578.585693 
	C549.967407,544.517883 575.234375,522.137207 610.967346,511.616821 
	C616.206726,510.074249 621.506714,508.737915 628.037415,506.964325 
	C625.611694,506.401917 624.531860,506.146240 623.449524,505.901459 
	C592.714844,498.950470 566.432983,484.852356 547.787781,458.593689 
	C536.691467,442.966400 529.315186,425.554565 523.773743,407.330017 
	C521.205688,398.884247 519.073792,390.305878 516.885925,382.306030 
	C513.260315,394.332611 510.032928,406.751678 505.785034,418.811249 
	C492.441101,456.693878 469.801086,486.145294 429.655029,500.127686 
z"/>
<path fill="#EEEAE5" opacity="1.000000" stroke="none" 
	d="
M583.830261,862.970886 
	C582.997681,873.595459 577.821045,882.130005 570.226746,889.059143 
	C558.114136,900.110718 543.909973,905.115479 527.361572,902.229736 
	C511.701630,899.498779 503.477661,884.587708 508.722321,869.067688 
	C514.600403,851.673096 527.707153,842.453308 544.876953,838.017456 
	C551.730896,836.246765 558.319885,837.198425 564.889771,839.272217 
	C566.094543,839.652649 567.337219,839.912781 569.048950,840.353760 
	C569.048950,834.009460 569.049194,828.202026 569.048950,822.394592 
	C569.047913,800.740479 569.051086,779.086365 569.042603,757.432251 
	C569.040283,751.541138 568.639221,751.165039 563.182800,752.840149 
	C532.755798,762.181152 502.358551,771.619385 471.908722,780.884949 
	C468.418457,781.947021 467.891235,783.997253 467.899200,787.165588 
	C467.980072,819.318604 467.197998,851.494995 468.194275,883.617249 
	C468.917786,906.944336 452.064880,924.272583 436.331085,930.493286 
	C427.256439,934.081177 417.932739,935.772461 408.188263,933.859558 
	C391.399200,930.563721 383.084656,915.573181 388.537567,898.837585 
	C395.640930,877.036560 423.897705,859.769226 448.144897,869.179138 
	C449.185089,869.582825 450.272400,869.865173 452.066406,870.435791 
	C452.066406,868.202148 452.067902,866.467896 452.066223,864.733704 
	C452.028137,825.584412 452.049225,786.434937 451.879852,747.286194 
	C451.857330,742.091187 453.485138,738.997742 458.683990,737.411072 
	C497.468140,725.574646 536.198303,713.561279 574.960266,701.651855 
	C580.117432,700.067383 581.896484,701.093140 583.644897,706.976807 
	C583.217529,708.313782 583.023621,708.964600 583.023438,709.615417 
	C583.008301,759.479187 583.002441,809.342896 583.041931,859.206665 
	C583.042908,860.461609 583.556030,861.716125 583.830261,862.970886 
z"/>
<path fill="#EEEAE5" opacity="1.000000" stroke="none" 
	d="
M587.867065,142.977493 
	C587.924622,144.711227 587.982117,146.444946 587.685059,148.909943 
	C587.510864,153.753326 587.691284,157.865448 587.871704,161.977554 
	C587.929443,163.062042 587.987122,164.146530 587.728516,165.815613 
	C587.566956,167.259552 587.721619,168.118912 587.876282,168.978271 
	C587.935059,170.062622 587.993896,171.146957 587.725220,172.846329 
	C587.557617,174.633636 587.717468,175.805908 587.877319,176.978195 
	C587.935425,177.436691 587.993530,177.895172 587.691711,179.001373 
	C587.225891,180.297180 587.027954,180.945190 587.027466,181.593369 
	C587.010620,203.966263 587.001099,226.339172 587.046143,248.711990 
	C587.048340,249.797821 587.553223,250.882629 587.823975,251.967926 
	C587.270996,264.024048 581.318359,273.454071 572.333374,280.683350 
	C561.410156,289.472046 548.919556,293.816284 534.493164,291.247589 
	C518.255859,288.356445 509.217865,272.907898 516.516907,255.076675 
	C524.011047,236.768692 549.708313,221.758255 570.140015,230.648758 
	C570.856018,230.960327 571.726562,230.916916 572.788940,231.079269 
	C572.888367,229.776062 573.046692,228.664276 573.047180,227.552429 
	C573.057434,204.246811 573.058777,180.941177 573.039246,157.635559 
	C573.034790,152.253891 572.105469,151.478607 566.834534,152.970917 
	C537.616394,161.243210 508.412872,169.567474 479.227356,177.954117 
	C477.758942,178.376083 476.504608,179.543015 474.737061,181.009888 
	C474.222382,182.306686 474.033051,182.956619 474.032684,183.606644 
	C474.016144,213.472565 474.006317,243.338501 474.048401,273.204346 
	C474.050171,274.459229 474.553101,275.713348 474.822571,276.967834 
	C474.438324,288.285889 468.851685,297.249725 460.809326,304.353333 
	C450.055511,313.851898 437.399658,318.831360 422.603821,317.055786 
	C402.582428,314.653076 392.809357,298.400116 400.679596,279.757355 
	C407.403168,263.830719 420.096710,254.839905 436.745880,252.289917 
	C444.108063,251.162323 451.905151,252.874405 459.900299,253.319397 
	C459.910889,253.092575 460.049896,251.512619 460.048981,249.932724 
	C460.028290,214.303543 460.032471,178.674225 459.912262,143.045334 
	C459.895813,138.170197 461.086700,135.296112 466.509552,133.860260 
	C503.799316,123.986816 540.995239,113.758659 578.209290,103.600288 
	C582.442078,102.444855 586.105591,102.317154 587.722290,107.764046 
	C587.641357,108.479477 587.752869,108.729774 587.864319,108.980072 
	C587.919739,112.361488 587.975159,115.742912 587.717957,119.763741 
	C587.557373,121.261078 587.709412,122.119003 587.861511,122.976929 
	C587.917358,124.062103 587.973206,125.147285 587.675049,126.942596 
	C587.503052,132.760986 587.685059,137.869232 587.867065,142.977493 
z"/>
<path fill="#EEEAE5" opacity="1.000000" stroke="none" 
	d="
M774.827698,536.967834 
	C774.446777,547.832703 769.291321,556.629883 762.065002,564.106873 
	C751.219849,575.328125 737.660645,580.992798 722.029602,580.479492 
	C701.396973,579.801819 690.798950,564.076477 697.410583,544.564026 
	C704.910156,522.431091 732.729309,506.807770 755.475098,515.217041 
	C756.761597,515.692688 758.283081,515.532898 760.167480,515.022217 
	C760.754639,513.394714 760.969482,512.414001 760.969971,511.433136 
	C760.988464,474.027069 760.997620,436.621002 760.949036,399.214996 
	C760.947205,397.815399 760.358887,396.416565 760.043884,395.017395 
	C762.191223,393.079773 764.022644,390.168915 766.534302,389.353851 
	C794.119507,380.401703 821.808228,371.768311 849.475037,363.068146 
	C855.405884,361.203125 861.343140,359.353912 867.310913,357.612122 
	C873.712158,355.743927 876.932007,358.126892 876.943054,364.659393 
	C876.963562,376.807922 876.945129,388.956512 876.736450,401.667267 
	C876.639587,402.479034 876.749146,402.728638 876.858765,402.978210 
	C876.914307,409.020905 876.969849,415.063568 876.714844,421.756287 
	C876.556946,423.263031 876.709595,424.119781 876.862244,424.976532 
	C876.918213,426.710724 876.974182,428.444946 876.708496,430.820740 
	C876.545166,432.633698 876.703613,433.805054 876.862061,434.976410 
	C876.923401,445.685242 876.984680,456.394104 876.718628,467.780151 
	C876.552673,469.631012 876.714111,470.804657 876.875488,471.978271 
	C876.932068,472.435425 876.988708,472.892578 876.805786,473.771973 
	C876.669495,474.456360 876.772766,474.718475 876.876099,474.980621 
	C876.933838,478.693207 876.991638,482.405762 876.722656,486.788635 
	C876.556763,488.632050 876.717651,489.805206 876.878540,490.978363 
	C876.936035,492.062622 876.993469,493.146912 876.695068,494.927216 
	C876.498596,499.071198 876.658020,502.519104 876.817444,505.967041 
	C876.793152,517.356140 871.801147,526.684082 864.210327,534.625916 
	C854.556763,544.725952 842.684265,550.304443 828.497375,550.081848 
	C809.084717,549.777161 798.281189,534.683533 804.364990,516.242004 
	C811.059814,495.948517 836.616211,479.828552 858.313416,487.363220 
	C859.319885,487.712738 860.704773,486.972656 862.285645,486.050476 
	C862.767822,484.712677 862.973633,484.064545 862.974060,483.416290 
	C862.991211,459.514038 863.003113,435.611755 862.950256,411.709625 
	C862.947571,410.476196 862.368469,409.243988 862.057739,408.011230 
	C860.238586,407.458832 858.141296,406.017212 856.641724,406.486328 
	C830.829956,414.561157 805.082336,422.841797 779.361145,431.202148 
	C777.770447,431.719177 776.515930,433.270355 774.717224,434.995178 
	C774.224487,436.299255 774.028076,436.948517 774.027771,437.597839 
	C774.013306,469.467926 774.006470,501.338043 774.050537,533.208069 
	C774.052246,534.461670 774.557190,535.714600 774.827698,536.967834 
z"/>
<path fill="#EDE9E5" opacity="1.000000" stroke="none" 
	d="
M273.192291,367.921387 
	C273.764343,368.660767 274.336395,369.400146 274.498077,370.610168 
	C273.725952,373.790833 273.063354,376.499420 273.050690,379.211060 
	C272.960297,398.537109 273.000305,417.863708 273.004425,437.190155 
	C273.005341,441.401642 273.010040,445.613312 273.046204,449.824615 
	C273.110840,457.350464 273.216675,464.875977 273.275848,472.401855 
	C273.340912,480.677917 273.205353,488.959808 273.479706,497.228455 
	C273.654205,502.487213 274.415894,507.726532 274.914246,512.974548 
	C274.925323,513.425903 274.936371,513.877319 274.524902,514.713135 
	C272.351135,515.944397 271.215057,516.851685 273.804688,518.125244 
	C273.771912,518.605896 273.739136,519.086487 273.132874,519.784058 
	C272.372528,520.001038 272.185669,520.001099 271.943970,519.861938 
	C271.803192,519.672974 271.717194,519.623291 271.631195,519.573608 
	C271.754517,519.715698 271.877869,519.857849 271.856384,520.333191 
	C270.819458,523.140259 269.927368,525.614014 269.035248,528.087830 
	C268.767059,528.600525 268.498871,529.113159 267.633636,529.813477 
	C266.375793,531.045532 265.715027,532.090088 265.054291,533.134583 
	C256.359955,543.074036 245.519409,548.278503 232.226685,547.160583 
	C216.353516,545.825684 208.633499,533.398987 213.571869,518.162842 
	C218.767242,502.133789 238.583252,487.507538 257.405670,492.863922 
	C258.435486,493.157013 259.824371,492.188324 261.258118,491.288208 
	C261.358429,490.519989 261.246735,490.270538 261.135040,490.021057 
	C261.080139,489.562317 261.025238,489.103546 261.300262,488.069550 
	C261.465149,486.003693 261.300079,484.513062 261.135010,483.022461 
	C261.080261,482.563538 261.025513,482.104614 261.325378,480.996521 
	C261.775818,459.267822 261.882050,438.188385 261.922913,417.108765 
	C261.924286,416.398682 261.266418,415.687256 260.915833,414.976471 
	C260.915833,414.976471 260.710541,414.701202 260.820221,414.139496 
	C259.723450,412.419922 258.663788,410.577118 257.273071,410.279175 
	C255.570312,409.914307 252.876923,410.208008 251.870956,411.337891 
	C249.376465,414.139862 243.788925,411.533295 242.986008,416.721619 
	C242.559143,416.827484 242.132263,416.933350 241.273483,416.899475 
	C240.556564,417.081177 240.271561,417.402649 239.986542,417.724152 
	C239.549652,417.822418 239.112747,417.920654 238.206940,417.898254 
	C237.645508,418.076416 237.553009,418.375275 237.460510,418.674103 
	C237.245056,418.748016 237.029602,418.821930 236.359253,418.491547 
	C235.501022,417.846008 235.003326,417.310944 234.707932,417.405823 
	C222.552399,421.310211 210.406708,425.246338 198.303085,429.307465 
	C197.767868,429.487030 197.637238,430.872406 197.318146,431.696106 
	C197.125214,431.764313 196.932281,431.832489 196.322723,431.505615 
	C195.353699,431.622467 194.801285,432.134399 194.248871,432.646301 
	C194.093262,432.722046 193.937653,432.797791 193.398285,432.496948 
	C192.032333,432.782043 191.050125,433.443787 190.067932,434.105530 
	C190.067932,434.105530 190.015198,434.018738 189.679062,434.032867 
	C188.425125,435.429535 186.779968,436.781494 186.720261,438.200134 
	C186.506027,443.292206 186.915039,448.406555 186.929367,453.512939 
	C186.961639,465.017914 186.939835,476.523438 186.864227,488.028259 
	C186.771881,502.077911 186.541809,516.126892 186.499634,530.176575 
	C186.485779,534.792297 186.871811,539.409241 187.074982,544.025635 
	C187.034058,544.467407 186.993134,544.909241 186.498993,545.683228 
	C183.116409,546.649475 183.685150,548.223877 184.976608,549.992615 
	C184.272415,551.563416 183.568222,553.134277 182.297485,554.903564 
	C181.525711,555.748474 181.320511,556.394836 181.115311,557.041199 
	C180.308014,558.289917 179.500717,559.538635 178.049652,560.933838 
	C176.575806,562.283997 175.745728,563.487610 174.915634,564.691223 
	C172.517212,566.776184 170.118805,568.861206 167.227173,570.798096 
	C166.149658,571.319397 165.565369,571.988831 164.981079,572.658264 
	C164.227127,573.107056 163.473160,573.555908 162.175095,573.788574 
	C156.664978,575.041077 151.688583,576.476868 146.752609,578.040405 
	C146.355469,578.166199 146.236481,579.170044 145.988220,579.765869 
	C145.549133,579.825500 145.110046,579.885132 144.253265,579.550171 
	C140.558929,579.402954 137.282272,579.650208 134.005600,579.897461 
	C133.558701,579.911865 133.111786,579.926331 132.286682,579.565430 
	C129.935791,578.802124 127.963112,578.414185 125.990433,578.026245 
	C125.398476,577.912170 124.806526,577.798035 124.046677,577.050171 
	C121.876244,575.294922 119.873718,574.173462 117.871193,573.052002 
	C117.522217,573.030151 117.261269,572.867249 117.026627,571.961426 
	C116.054756,568.358093 115.981476,564.562561 114.051659,562.528564 
	C110.566490,558.855164 111.979172,555.214172 112.263405,551.353699 
	C112.318245,550.608826 111.495171,549.799194 111.077080,549.019470 
	C111.074333,548.568665 111.071602,548.117859 111.484489,547.260376 
	C113.589516,542.875244 115.278915,538.896790 116.968315,534.918335 
	C116.995316,534.592102 117.118889,534.307800 117.931458,533.970459 
	C119.003532,532.885620 119.483192,531.895813 119.962852,530.906006 
	C121.065193,529.660461 122.167534,528.414856 123.948318,527.065186 
	C128.002838,525.803650 131.958054,525.299622 132.021912,520.405701 
	C133.427521,519.599487 134.833130,518.793335 136.780167,518.182739 
	C140.426102,517.671143 144.249466,518.439819 145.684357,514.304932 
	C145.876221,514.244080 146.068100,514.183167 146.683014,514.541260 
	C149.074341,514.381653 151.042633,513.802979 153.010925,513.224365 
	C155.049423,513.174927 157.087921,513.125549 159.574646,513.521973 
	C161.629089,515.782227 166.775436,516.791321 170.025436,515.929077 
	C171.156967,515.806274 172.288513,515.683411 173.975739,515.023926 
	C174.685349,512.689392 174.971664,510.891693 174.973480,509.093689 
	C175.003555,479.383606 174.997849,449.673492 174.995026,419.565765 
	C174.397476,417.441864 173.805084,415.715607 173.212692,413.989319 
	C173.162689,409.967590 173.112686,405.945892 173.416519,401.425537 
	C173.840820,400.282532 173.911285,399.638153 173.981750,398.993805 
	C174.443954,398.055206 174.906158,397.116638 176.102753,396.095154 
	C185.338181,395.134277 193.065598,392.214752 200.010864,387.231110 
	C200.453278,387.143311 200.895676,387.055511 201.696854,387.198151 
	C202.245346,387.629974 202.435074,387.831360 202.624802,388.032776 
	C202.633667,387.469727 202.642532,386.906708 202.651382,386.343658 
	C202.846893,386.266876 203.042419,386.190094 203.661682,386.513489 
	C205.124908,386.964233 206.252365,387.304596 207.190094,387.019958 
	C215.550995,384.482086 223.859787,381.772400 232.222275,379.239990 
	C237.709732,377.578247 243.393967,376.482025 248.745071,374.478241 
	C253.995987,372.511902 258.937042,369.718048 264.014069,367.287354 
	C264.448822,367.194092 264.883606,367.100830 265.677917,367.262451 
	C266.695312,367.084900 267.353149,366.652435 268.010986,366.219971 
	C268.452454,366.167206 268.893890,366.114471 269.741516,366.474304 
	C271.162567,367.231720 272.177429,367.576538 273.192291,367.921387 
z"/>
<path fill="#ECE8E4" opacity="1.000000" stroke="none" 
	d="
M273.858490,767.971008 
	C272.641968,780.226990 266.072968,789.507324 257.134918,797.284607 
	C244.460876,808.312683 229.449158,812.812683 212.948349,810.780151 
	C195.911804,808.681641 187.232330,790.595825 194.419754,773.252625 
	C203.341827,751.723755 227.970444,737.330994 253.014343,744.626343 
	C254.416748,745.034851 255.870621,745.266785 257.958282,745.725403 
	C258.140137,743.395813 258.442780,741.350586 258.438263,739.306091 
	C258.349518,699.154968 258.220734,659.003906 258.112732,618.852844 
	C258.096985,613.000732 261.065979,609.539368 266.295593,610.216736 
	C268.540955,610.507568 271.919189,612.228027 272.449463,613.997925 
	C277.329376,630.286011 289.766205,639.688843 302.839905,648.679260 
	C317.988037,659.096252 328.714661,672.668274 332.370117,691.099915 
	C336.517639,712.013000 331.961151,730.760132 318.196198,747.145813 
	C317.024628,748.540466 315.687408,749.843872 314.244171,750.951172 
	C312.087036,752.606323 309.814789,754.976807 306.947021,752.309326 
	C304.139099,749.697388 304.896881,747.023315 306.681183,743.882812 
	C310.074219,737.910767 313.986847,731.926270 315.807526,725.421814 
	C323.592926,697.607666 309.359344,673.467957 281.385986,666.027283 
	C279.389832,665.496338 277.249420,665.507690 274.518738,665.728699 
	C273.578735,667.779907 273.051941,669.368896 273.049408,670.958740 
	C273.000427,701.713257 273.000244,732.467896 273.048492,763.222412 
	C273.050995,764.805664 273.576508,766.388184 273.858490,767.971008 
z"/>
<path fill="#EEEAE5" opacity="1.000000" stroke="none" 
	d="
M704.100220,160.019135 
	C704.037292,159.563736 703.974365,159.108353 704.156860,158.239136 
	C704.467590,157.730209 704.609741,157.588318 704.585144,157.548004 
	C704.470337,157.359451 704.309509,157.198929 704.165161,157.028381 
	C704.766907,152.370773 708.449768,151.256134 712.032959,151.252350 
	C715.518188,151.248657 718.241943,153.524612 718.906067,157.237640 
	C721.263367,170.416199 728.686279,180.488754 738.317078,189.217026 
	C745.814697,196.012070 753.837463,202.294022 760.823730,209.574631 
	C782.021973,231.665863 781.112671,271.233582 759.193787,292.120941 
	C757.411133,293.819733 754.782410,295.643250 752.557373,295.630157 
	C749.142700,295.610077 748.190308,290.584961 750.707703,286.859467 
	C756.469971,278.331787 759.653870,269.149353 760.197693,258.683228 
	C761.266052,238.125671 747.004272,221.449509 729.676819,215.980530 
	C726.641907,215.022644 723.558777,212.039917 719.744385,215.967758 
	C719.513428,219.740723 719.693909,222.859344 719.874390,225.977982 
	C719.931641,227.062164 719.988831,228.146362 719.686218,229.939026 
	C719.220398,231.296173 719.021973,231.944824 719.021606,232.593567 
	C719.006531,259.466827 718.998169,286.340118 719.044495,313.213287 
	C719.046692,314.465393 719.557983,315.716644 719.832153,316.968292 
	C719.459961,328.630859 713.787781,337.942627 705.670471,345.491119 
	C695.019104,355.396057 682.127258,360.588715 667.313782,360.009644 
	C643.937012,359.095856 634.857727,341.187469 642.342651,321.469818 
	C648.530762,305.168549 669.101562,291.063354 686.574341,291.208038 
	C692.216919,291.254761 697.845154,293.039825 704.057739,294.131195 
	C704.057739,282.059174 704.057739,269.972992 704.369873,257.131592 
	C704.501648,253.925720 704.321228,251.475052 704.140869,249.024368 
	C704.084106,245.972046 704.027405,242.919739 704.325195,239.106308 
	C704.495483,230.571106 704.311340,222.797012 704.127197,215.022919 
	C704.070312,213.937851 704.013489,212.852768 704.315979,211.058502 
	C704.764160,194.148712 704.861633,177.948135 704.905823,161.747421 
	C704.907410,161.172058 704.380676,160.595261 704.100220,160.019135 
z"/>
<path fill="#EDE9E5" opacity="1.000000" stroke="none" 
	d="
M769.190857,681.031616 
	C769.143250,660.604126 769.106995,640.176575 769.039001,619.749146 
	C769.024048,615.256958 771.648438,613.000854 775.662354,612.583496 
	C779.237183,612.211792 782.635498,613.777832 782.926086,617.649292 
	C784.337769,636.458984 795.209290,649.103210 809.753418,660.281006 
	C811.104675,661.667847 812.239624,662.407776 813.374573,663.147705 
	C813.374573,663.147705 813.692627,663.293274 813.595947,663.778931 
	C814.372253,664.826477 815.245239,665.388428 816.118164,665.950378 
	C816.465515,665.978516 816.726562,666.143433 816.970459,667.051392 
	C818.025330,668.439209 819.010986,669.220581 819.996582,670.001953 
	C819.996582,670.001953 820.000000,670.000000 819.994995,670.361145 
	C820.697205,671.456238 821.404541,672.190125 822.111816,672.924072 
	C822.111816,672.924072 822.019226,672.983887 822.029907,673.305420 
	C823.008362,674.758057 823.976196,675.889160 824.943970,677.020264 
	C825.950012,678.772522 826.956116,680.524841 827.743164,682.855957 
	C827.157837,686.022766 827.064819,688.449402 830.639343,688.710327 
	C830.721375,688.897095 830.803406,689.083862 830.479858,689.692993 
	C828.713562,693.284851 829.320374,695.694824 832.739502,697.019165 
	C832.810364,697.764832 832.881226,698.510498 832.596680,699.847900 
	C832.139282,706.953613 832.037292,713.467468 831.935364,719.981384 
	C831.938782,720.429871 831.942261,720.878357 831.566528,721.697021 
	C828.143127,728.421021 825.098755,734.774963 822.054443,741.128906 
	C821.387695,741.903870 820.720825,742.678833 819.633667,743.205078 
	C819.027771,742.945740 818.842163,742.935120 818.656616,742.924438 
	C818.861206,743.109924 819.065735,743.295471 819.270264,743.481018 
	C817.775635,744.300720 816.280945,745.120483 814.786316,745.940186 
	C813.879395,744.219971 812.972473,742.499695 812.518250,740.388306 
	C813.592651,738.645325 814.214355,737.293579 814.836121,735.941833 
	C815.506470,734.504150 816.176819,733.066528 817.358337,731.237183 
	C818.655457,727.638123 819.441406,724.430847 820.227295,721.223572 
	C820.149231,720.978638 820.101562,720.727966 820.549316,720.147827 
	C824.235596,714.926453 823.862244,708.433960 820.218445,705.982422 
	C820.155396,705.537781 820.092285,705.093079 820.255981,704.146851 
	C820.089294,703.089844 819.695801,702.534363 819.302368,701.978882 
	C819.210571,701.543640 819.118774,701.108398 819.230835,700.171509 
	C819.019531,699.108032 818.604431,698.546204 818.189331,697.984436 
	C817.483704,696.576477 816.778076,695.168518 816.027466,693.061890 
	C815.332153,691.571594 814.681702,690.779968 814.031311,689.988342 
	C812.093872,687.883911 810.156433,685.779480 808.100220,682.971680 
	C806.880005,681.557983 805.778503,680.847717 804.677063,680.137512 
	C804.174316,679.944214 803.671631,679.750916 803.025085,678.935669 
	C801.854858,677.883728 800.828430,677.453674 799.802002,677.023560 
	C798.406250,676.400208 797.010559,675.776855 795.311340,674.663696 
	C794.988770,673.675110 795.095032,672.787964 794.932007,672.735352 
	C792.105164,671.823242 789.261597,670.938232 786.364319,670.312561 
	C786.109741,670.257629 785.456787,672.046997 784.988892,672.979736 
	C784.988892,672.979736 785.000000,673.000000 784.647400,673.043823 
	C783.630859,674.145447 782.439575,675.179260 782.390198,676.265076 
	C782.109802,682.432495 781.966553,688.613708 782.033813,694.787476 
	C782.134155,704.004456 782.650879,713.219727 782.624451,722.434631 
	C782.583618,736.637390 782.195312,750.839050 782.095459,765.042114 
	C782.088501,766.027710 783.249207,767.021545 783.866943,768.011536 
	C783.891174,768.453003 783.915344,768.894531 783.560791,769.700745 
	C781.135376,775.410767 779.088806,780.755981 777.042236,786.101257 
	C776.262085,787.331604 775.481934,788.561890 774.048706,789.947266 
	C772.637512,791.163391 771.879517,792.224548 771.121460,793.285706 
	C768.865234,795.263123 766.609009,797.240540 763.703613,799.256348 
	C762.395996,799.902527 761.737549,800.510376 761.079102,801.118164 
	C761.079041,801.118164 761.018860,801.023682 760.678162,801.030029 
	C759.841309,801.038269 759.283630,800.890076 758.857971,801.064270 
	C749.726318,804.801208 740.562134,808.214966 730.363525,806.135498 
	C729.729553,806.006165 728.803955,807.306824 728.014038,807.942139 
	C727.566528,807.942444 727.119019,807.942810 726.280090,807.511108 
	C723.251831,806.408630 720.614990,805.738281 717.978210,805.067993 
	C717.397278,804.919495 716.816284,804.770935 716.046021,803.996338 
	C715.121155,803.182983 714.385559,802.995789 713.649902,802.808594 
	C713.649902,802.808655 713.356812,802.687561 713.450806,802.219971 
	C712.900574,801.457703 712.256348,801.163086 711.612122,800.868469 
	C711.612122,800.868469 711.297791,800.726624 711.396606,800.248718 
	C710.633118,799.201050 709.770813,798.631348 708.908569,798.061584 
	C708.908569,798.061584 708.989502,798.009216 708.974854,797.685913 
	C708.284546,796.583801 707.609009,795.805054 706.933411,795.026245 
	C706.635681,794.555542 706.337891,794.084900 706.228516,793.153687 
	C705.682678,791.123657 704.948364,789.554138 704.214050,787.984619 
	C704.159729,787.542236 704.105469,787.099915 704.331421,786.058228 
	C705.117676,780.558105 705.623718,775.657227 706.129761,770.756409 
	C706.358887,770.065491 706.588013,769.374512 707.332581,768.273926 
	C708.217896,766.875671 708.587769,765.887085 708.957642,764.898560 
	C708.957703,764.898560 709.077942,764.421265 709.588928,764.213867 
	C710.693848,762.912415 711.287720,761.818237 711.881592,760.724060 
	C714.270081,758.157410 716.658569,755.590759 719.750977,752.979492 
	C721.971313,751.630371 723.487610,750.325867 725.003906,749.021362 
	C725.839172,748.407776 726.674377,747.794128 728.229248,747.400024 
	C729.270447,747.688660 729.680298,747.921631 729.900757,747.802979 
	C741.245728,741.698181 752.925903,742.276123 764.818787,745.871887 
	C765.739258,746.150146 766.944885,745.485657 768.017944,745.259277 
	C768.329224,744.403015 768.640442,743.546692 769.290894,742.078125 
	C769.460632,739.651550 769.291077,737.837219 769.121521,736.022888 
	C769.066101,730.313293 769.010742,724.603699 769.304138,718.154907 
	C769.478882,714.951294 769.304871,712.486816 769.130859,710.022400 
	C769.077820,700.981873 769.024780,691.941284 769.207886,682.360352 
	C769.503601,681.723328 769.636597,681.581482 769.609802,681.538025 
	C769.495911,681.353271 769.334778,681.197815 769.190857,681.031616 
z"/>
<path fill="#EEEAE5" opacity="1.000000" stroke="none" 
	d="
M338.156555,147.028549 
	C339.430420,142.247192 342.354828,140.128052 346.994659,140.822662 
	C351.342499,141.473557 353.902771,144.071213 353.909760,148.496902 
	C353.969391,186.278229 355.023926,224.102798 353.516724,261.823944 
	C352.694672,282.396942 338.939270,295.787537 319.781708,302.910767 
	C305.275269,308.304626 291.468475,307.206024 278.459412,298.036346 
	C263.602997,287.564514 263.252991,266.794312 275.775269,253.815704 
	C291.353302,237.670090 311.106232,233.618317 331.922546,242.114334 
	C333.563202,242.783966 335.201141,243.460251 337.955444,244.591400 
	C337.955444,241.560684 337.955444,239.197922 338.307861,236.109772 
	C338.482239,232.263672 338.304230,229.142944 338.126221,226.022232 
	C338.068817,224.937851 338.011444,223.853470 338.313904,222.060822 
	C338.780731,209.976868 338.919098,198.601288 338.954498,187.225403 
	C338.958862,185.824875 338.413330,184.422623 338.122589,183.021179 
	C338.065247,182.563126 338.007935,182.105072 338.309631,181.003998 
	C338.485992,175.914429 338.303375,171.467865 338.120728,167.021317 
	C338.063141,166.255432 338.005524,165.489548 338.289429,164.094391 
	C338.459991,161.650238 338.289062,159.835373 338.118164,158.020508 
	C338.060547,157.562836 338.002960,157.105179 338.273926,156.095306 
	C338.437408,154.368378 338.272400,153.193649 338.107391,152.018906 
	C338.046387,151.254730 337.985413,150.490570 338.226440,149.214661 
	C338.404510,148.144821 338.280548,147.586685 338.156555,147.028549 
z"/>
<path fill="#ECE8E4" opacity="1.000000" stroke="none" 
	d="
M372.318420,829.690613 
	C350.465942,820.130188 329.691956,809.432312 310.859009,795.279724 
	C305.569061,791.304443 304.477386,786.134094 307.838867,781.724243 
	C311.359619,777.105530 315.762573,776.765808 321.609283,780.884888 
	C347.351288,799.020874 375.105530,813.092468 405.228088,822.386658 
	C408.520752,823.402649 411.887238,824.182251 415.227539,825.039978 
	C420.668762,826.437195 423.301758,830.878052 421.913025,836.361694 
	C420.833740,840.623413 415.494324,843.871948 410.990906,842.452087 
	C398.165955,838.408752 385.425842,834.096252 372.318420,829.690613 
z"/>
<path fill="#ECE8E4" opacity="1.000000" stroke="none" 
	d="
M227.905502,685.585144 
	C221.523453,692.062500 216.157211,691.399719 211.805222,684.071411 
	C195.995651,657.449829 185.217621,628.852966 178.242813,598.760864 
	C176.931152,593.101868 179.276169,588.307312 183.831757,587.089233 
	C189.654510,585.532288 194.275131,588.220520 195.534439,594.576477 
	C201.320282,623.778564 212.704025,650.730347 227.525833,676.407898 
	C228.848907,678.700073 227.963547,682.266968 227.905502,685.585144 
z"/>
<path fill="#EBE7E3" opacity="1.000000" stroke="none" 
	d="
M622.407837,839.502075 
	C616.144165,840.124084 612.124146,837.363647 611.095459,832.179688 
	C610.329895,828.322144 613.213989,823.986206 617.570251,822.172852 
	C634.034851,815.319458 650.490967,808.445435 666.924988,801.519165 
	C672.887329,799.006348 677.681702,800.263428 679.941528,805.129089 
	C682.298157,810.203430 680.574341,814.785645 674.435669,817.452393 
	C657.284912,824.902832 639.998535,832.040955 622.407837,839.502075 
z"/>
<path fill="#ECE8E4" opacity="1.000000" stroke="none" 
	d="
M836.108032,592.128418 
	C837.084045,587.709473 837.847900,583.662354 838.974854,579.718933 
	C840.410950,574.693848 844.860901,572.040405 849.521240,573.121216 
	C854.138367,574.192017 856.830688,578.754578 855.833313,583.923889 
	C852.177673,602.870850 846.466553,621.190430 838.974243,638.963074 
	C836.597046,644.602234 832.216919,646.692688 827.069702,644.656433 
	C822.340637,642.785522 820.720886,637.743530 822.658630,632.146973 
	C827.217834,618.978943 831.602112,605.750366 836.108032,592.128418 
z"/>
<path fill="#ECE8E4" opacity="1.000000" stroke="none" 
	d="
M643.214355,202.782654 
	C634.671509,199.725403 626.510803,196.743820 618.287354,193.946915 
	C612.989197,192.144943 609.912598,187.457138 611.130066,182.563126 
	C612.367432,177.589020 617.634216,174.244781 622.844055,176.269287 
	C639.058655,182.570175 655.148926,189.207947 671.132568,196.075592 
	C675.885010,198.117538 677.153992,202.823959 675.261902,207.291199 
	C672.966797,212.710052 668.041687,214.499207 662.678406,211.938278 
	C656.324768,208.904465 649.940735,205.934341 643.214355,202.782654 
z"/>
<path fill="#EBE7E3" opacity="1.000000" stroke="none" 
	d="
M232.096146,340.147827 
	C229.528992,345.139709 227.200409,349.840088 224.672592,354.430786 
	C221.845123,359.565613 216.916214,361.180389 212.230164,358.704987 
	C207.644028,356.282410 206.112549,351.255981 209.088913,346.145721 
	C217.287018,332.069946 225.630081,318.074097 234.188141,304.214783 
	C237.544571,298.779236 242.694351,297.807068 247.291870,300.961670 
	C251.798584,304.053955 252.022842,308.667511 248.348358,314.315308 
	C242.867813,322.739105 237.603241,331.303406 232.096146,340.147827 
z"/>
<path fill="#EBE7E3" opacity="1.000000" stroke="none" 
	d="
M799.603760,340.446411 
	C793.952332,331.284637 788.546326,322.407532 783.057617,313.581879 
	C779.939148,308.567535 780.650085,303.559509 785.059753,300.572906 
	C789.186584,297.777924 794.754700,298.649231 797.628418,303.439941 
	C806.002014,317.399200 814.160034,331.496094 822.030518,345.744507 
	C825.070068,351.247131 823.337097,355.813812 818.422180,358.186981 
	C813.472534,360.576935 808.826294,358.668457 805.993042,353.062103 
	C803.922302,348.964661 801.873230,344.856232 799.603760,340.446411 
z"/>
<path fill="#ECE8E4" opacity="1.000000" stroke="none" 
	d="
M429.656921,191.905121 
	C416.641479,196.035873 403.984497,200.020309 391.405853,204.238373 
	C385.446930,206.236588 381.098389,204.674835 378.919708,199.214554 
	C376.967407,194.321808 378.713135,190.017105 384.413513,188.009949 
	C398.139374,183.176865 411.985107,178.676636 425.843994,174.234085 
	C429.484314,173.067154 434.046204,176.114471 435.546661,180.119659 
	C437.236420,184.630157 435.216675,188.940231 429.656921,191.905121 
z"/>
<path fill="#E2E1DF" opacity="1.000000" stroke="none" 
	d="
M275.075256,512.594482 
	C274.415894,507.726532 273.654205,502.487213 273.479706,497.228455 
	C273.205353,488.959808 273.340912,480.677917 273.275848,472.401855 
	C273.216675,464.875977 273.110840,457.350464 273.046204,449.824615 
	C273.010040,445.613312 273.005341,441.401642 273.004425,437.190155 
	C273.000305,417.863708 272.960297,398.537109 273.050690,379.211060 
	C273.063354,376.499420 273.725952,373.790833 274.442322,370.977142 
	C275.012146,389.625153 275.275970,408.376404 275.430786,427.128571 
	C275.648743,453.532318 275.801910,479.936615 275.924744,506.340942 
	C275.933868,508.297668 275.476715,510.256592 275.075256,512.594482 
z"/>
<path fill="#DCDBDB" opacity="1.000000" stroke="none" 
	d="
M783.984375,767.612427 
	C783.249207,767.021545 782.088501,766.027710 782.095459,765.042114 
	C782.195312,750.839050 782.583618,736.637390 782.624451,722.434631 
	C782.650879,713.219727 782.134155,704.004456 782.033813,694.787476 
	C781.966553,688.613708 782.109802,682.432495 782.390198,676.265076 
	C782.439575,675.179260 783.630859,674.145447 784.637329,673.038330 
	C784.791199,693.591797 784.604248,714.194580 784.413208,734.797302 
	C784.313049,745.602600 784.205872,756.407959 783.984375,767.612427 
z"/>
<path fill="#E2E1DF" opacity="1.000000" stroke="none" 
	d="
M187.378342,543.775330 
	C186.871811,539.409241 186.485779,534.792297 186.499634,530.176575 
	C186.541809,516.126892 186.771881,502.077911 186.864227,488.028259 
	C186.939835,476.523438 186.961639,465.017914 186.929367,453.512939 
	C186.915039,448.406555 186.506027,443.292206 186.720261,438.200134 
	C186.779968,436.781494 188.425125,435.429535 189.722687,434.058868 
	C189.724365,435.955414 189.021439,437.839325 189.016922,439.724884 
	C188.947281,468.879822 189.033310,498.035278 188.910309,527.189880 
	C188.887329,532.636536 188.110580,538.080078 187.378342,543.775330 
z"/>
<path fill="#FCFCFB" opacity="1.000000" stroke="none" 
	d="
M583.953979,862.569641 
	C583.556030,861.716125 583.042908,860.461609 583.041931,859.206665 
	C583.002441,809.342896 583.008301,759.479187 583.023438,709.615417 
	C583.023621,708.964600 583.217529,708.313782 583.588257,707.349854 
	C583.964783,725.158142 584.100037,743.279541 584.177429,761.401123 
	C584.313171,793.170471 584.421204,824.939941 584.508484,856.709412 
	C584.513489,858.528687 584.228027,860.348694 583.953979,862.569641 
z"/>
<path fill="#FCFCFB" opacity="1.000000" stroke="none" 
	d="
M175.000168,419.963379 
	C174.997849,449.673492 175.003555,479.383606 174.973480,509.093689 
	C174.971664,510.891693 174.685349,512.689392 174.208557,514.762817 
	C173.633606,496.127258 173.324005,477.216553 173.149857,458.304657 
	C173.035248,445.856171 173.115860,433.405914 173.471100,420.499329 
	C174.222153,420.015900 174.611160,419.989655 175.000168,419.963379 
z"/>
<path fill="#FEFEFE" opacity="1.000000" stroke="none" 
	d="
M759.822510,395.328064 
	C760.358887,396.416565 760.947205,397.815399 760.949036,399.214996 
	C760.997620,436.621002 760.988464,474.027069 760.969971,511.433136 
	C760.969482,512.414001 760.754639,513.394714 760.356323,514.677856 
	C759.966797,494.676178 759.840881,474.372253 759.760193,454.068146 
	C759.682739,434.591766 759.652222,415.115204 759.822510,395.328064 
z"/>
<path fill="#E2E1DF" opacity="1.000000" stroke="none" 
	d="
M263.639771,367.308380 
	C258.937042,369.718048 253.995987,372.511902 248.745071,374.478241 
	C243.393967,376.482025 237.709732,377.578247 232.222275,379.239990 
	C223.859787,381.772400 215.550995,384.482086 207.190094,387.019958 
	C206.252365,387.304596 205.124908,386.964233 203.973022,386.562012 
	C223.216171,380.125305 242.572189,374.041626 261.924896,367.947449 
	C262.390472,367.800873 262.819427,367.537994 263.639771,367.308380 
z"/>
<path fill="#FEFEFE" opacity="1.000000" stroke="none" 
	d="
M274.000092,767.521484 
	C273.576508,766.388184 273.050995,764.805664 273.048492,763.222412 
	C273.000244,732.467896 273.000427,701.713257 273.049408,670.958740 
	C273.051941,669.368896 273.578735,667.779907 274.230835,665.889465 
	C274.541321,691.959045 274.499115,718.329651 274.412933,744.700134 
	C274.388580,752.157654 274.235657,759.614746 274.000092,767.521484 
z"/>
<path fill="#FEFEFE" opacity="1.000000" stroke="none" 
	d="
M774.936279,536.512329 
	C774.557190,535.714600 774.052246,534.461670 774.050537,533.208069 
	C774.006470,501.338043 774.013306,469.467926 774.027771,437.597839 
	C774.028076,436.948517 774.224487,436.299255 774.602295,435.340637 
	C774.931763,468.706451 774.988342,502.381653 774.936279,536.512329 
z"/>
<path fill="#FEFEFE" opacity="1.000000" stroke="none" 
	d="
M474.924072,276.510925 
	C474.553101,275.713348 474.050171,274.459229 474.048401,273.204346 
	C474.006317,243.338501 474.016144,213.472565 474.032684,183.606644 
	C474.033051,182.956619 474.222382,182.306686 474.592743,181.344940 
	C474.916473,212.706772 474.971039,244.380371 474.924072,276.510925 
z"/>
<path fill="#FEFEFE" opacity="1.000000" stroke="none" 
	d="
M719.952454,316.515259 
	C719.557983,315.716644 719.046692,314.465393 719.044495,313.213287 
	C718.998169,286.340118 719.006531,259.466827 719.021606,232.593567 
	C719.021973,231.944824 719.220398,231.296173 719.600708,230.338867 
	C719.940918,258.707550 720.006836,287.384888 719.952454,316.515259 
z"/>
<path fill="#E2E1DF" opacity="1.000000" stroke="none" 
	d="
M197.694275,431.564880 
	C197.637238,430.872406 197.767868,429.487030 198.303085,429.307465 
	C210.406708,425.246338 222.552399,421.310211 234.707932,417.405823 
	C235.003326,417.310944 235.501022,417.846008 236.020615,418.446106 
	C223.448044,423.014526 210.759216,427.224091 197.694275,431.564880 
z"/>
<path fill="#DCDBDB" opacity="1.000000" stroke="none" 
	d="
M767.638916,745.165771 
	C766.944885,745.485657 765.739258,746.150146 764.818787,745.871887 
	C752.925903,742.276123 741.245728,741.698181 729.900757,747.802979 
	C729.680298,747.921631 729.270447,747.688660 728.556702,747.412109 
	C740.842102,740.000732 753.871704,739.249512 767.638916,745.165771 
z"/>
<path fill="#FEFEFE" opacity="1.000000" stroke="none" 
	d="
M861.984009,408.474121 
	C862.368469,409.243988 862.947571,410.476196 862.950256,411.709625 
	C863.003113,435.611755 862.991211,459.514038 862.974060,483.416290 
	C862.973633,484.064545 862.767822,484.712677 862.380371,485.667358 
	C862.038757,460.294922 861.974548,434.615967 861.984009,408.474121 
z"/>
<path fill="#DCDBDB" opacity="1.000000" stroke="none" 
	d="
M728.372681,808.145081 
	C728.803955,807.306824 729.729553,806.006165 730.363525,806.135498 
	C740.562134,808.214966 749.726318,804.801208 758.857971,801.064270 
	C759.283630,800.890076 759.841309,801.038269 760.725708,801.059692 
	C751.174500,807.314819 740.458069,810.083191 728.372681,808.145081 
z"/>
<path fill="#FEFEFE" opacity="1.000000" stroke="none" 
	d="
M587.936890,251.513306 
	C587.553223,250.882629 587.048340,249.797821 587.046143,248.711990 
	C587.001099,226.339172 587.010620,203.966263 587.027466,181.593369 
	C587.027954,180.945190 587.225891,180.297180 587.604858,179.339798 
	C587.935303,203.039886 587.992554,227.049286 587.936890,251.513306 
z"/>
<path fill="#FEFEFE" opacity="1.000000" stroke="none" 
	d="
M260.790955,415.432434 
	C261.266418,415.687256 261.924286,416.398682 261.922913,417.108765 
	C261.882050,438.188385 261.775818,459.267822 261.407471,480.657166 
	C260.978729,459.274109 260.822418,437.581268 260.790955,415.432434 
z"/>
<path fill="#E2E1DF" opacity="1.000000" stroke="none" 
	d="
M199.632111,387.237701 
	C193.065598,392.214752 185.338181,395.134277 176.411285,396.003479 
	C183.154907,393.329315 190.325180,390.665894 197.492477,387.994537 
	C198.089691,387.771973 198.666870,387.495667 199.632111,387.237701 
z"/>
<path fill="#FFFFFF" opacity="1.000000" stroke="none" 
	d="
M704.028931,160.481857 
	C704.380676,160.595261 704.907410,161.172058 704.905823,161.747421 
	C704.861633,177.948135 704.764160,194.148712 704.401978,210.658447 
	C704.071594,194.293243 704.014648,177.618912 704.028931,160.481857 
z"/>
<path fill="#E2E1DF" opacity="1.000000" stroke="none" 
	d="
M110.880592,549.378845 
	C111.495171,549.799194 112.318245,550.608826 112.263405,551.353699 
	C111.979172,555.214172 110.566490,558.855164 114.051659,562.528564 
	C115.981476,564.562561 116.054756,568.358093 116.962006,571.731323 
	C110.429947,565.893188 108.986435,558.256348 110.880592,549.378845 
z"/>
<path fill="#DCDBDB" opacity="1.000000" stroke="none" 
	d="
M832.145569,719.647461 
	C832.037292,713.467468 832.139282,706.953613 832.562378,700.223145 
	C832.707581,706.442261 832.531677,712.877869 832.145569,719.647461 
z"/>
<path fill="#E2E1DF" opacity="1.000000" stroke="none" 
	d="
M243.361023,416.711578 
	C243.788925,411.533295 249.376465,414.139862 251.870956,411.337891 
	C252.876923,410.208008 255.570312,409.914307 257.273071,410.279175 
	C258.663788,410.577118 259.723450,412.419922 260.890930,413.983032 
	C259.104218,413.867676 257.201324,412.628967 255.638977,412.966522 
	C251.591293,413.841064 247.693619,415.409882 243.361023,416.711578 
z"/>
<path fill="#DCDBDB" opacity="1.000000" stroke="none" 
	d="
M822.368774,740.991089 
	C825.098755,734.774963 828.143127,728.421021 831.489929,722.025024 
	C828.755981,728.273010 825.719543,734.563110 822.368774,740.991089 
z"/>
<path fill="#DCDBDB" opacity="1.000000" stroke="none" 
	d="
M820.156616,706.443604 
	C823.862244,708.433960 824.235596,714.926453 820.612671,719.966187 
	C820.172363,715.707092 820.133606,711.305969 820.156616,706.443604 
z"/>
<path fill="#FEFEFE" opacity="1.000000" stroke="none" 
	d="
M338.054810,183.484222 
	C338.413330,184.422623 338.958862,185.824875 338.954498,187.225403 
	C338.919098,198.601288 338.780731,209.976868 338.399414,221.660919 
	C338.079071,209.295288 338.033020,196.621277 338.054810,183.484222 
z"/>
<path fill="#E2E1DF" opacity="1.000000" stroke="none" 
	d="
M146.379089,579.820068 
	C146.236481,579.170044 146.355469,578.166199 146.752609,578.040405 
	C151.688583,576.476868 156.664978,575.041077 161.845337,573.859253 
	C156.963104,576.055481 151.866516,577.964844 146.379089,579.820068 
z"/>
<path fill="#DCDBDB" opacity="1.000000" stroke="none" 
	d="
M777.361450,785.958008 
	C779.088806,780.755981 781.135376,775.410767 783.483398,770.023926 
	C781.750061,775.259827 779.715393,780.537231 777.361450,785.958008 
z"/>
<path fill="#DCDBDB" opacity="1.000000" stroke="none" 
	d="
M705.919678,771.024780 
	C705.623718,775.657227 705.117676,780.558105 704.369629,785.723999 
	C704.654907,781.090454 705.182190,776.191772 705.919678,771.024780 
z"/>
<path fill="#E2E1DF" opacity="1.000000" stroke="none" 
	d="
M116.653580,535.069214 
	C115.278915,538.896790 113.589516,542.875244 111.568268,546.932129 
	C112.937225,543.080444 114.638031,539.150269 116.653580,535.069214 
z"/>
<path fill="#DCDBDB" opacity="1.000000" stroke="none" 
	d="
M785.402710,672.876587 
	C785.456787,672.046997 786.109741,670.257629 786.364319,670.312561 
	C789.261597,670.938232 792.105164,671.823242 794.932007,672.735352 
	C795.095032,672.787964 794.988770,673.675110 795.011902,674.496460 
	C791.949463,674.137207 788.883057,673.455322 785.402710,672.876587 
z"/>
<path fill="#E2E1DF" opacity="1.000000" stroke="none" 
	d="
M169.820755,515.623108 
	C166.775436,516.791321 161.629089,515.782227 160.005249,513.601196 
	C163.197098,513.928833 166.406586,514.622986 169.820755,515.623108 
z"/>
<path fill="#FFFFFF" opacity="1.000000" stroke="none" 
	d="
M704.060059,215.485901 
	C704.311340,222.797012 704.495483,230.571106 704.408264,238.655548 
	C704.088867,231.293549 704.040894,223.621216 704.060059,215.485901 
z"/>
<path fill="#E2E1DF" opacity="1.000000" stroke="none" 
	d="
M131.711517,520.492798 
	C131.958054,525.299622 128.002838,525.803650 124.241730,526.951660 
	C126.371490,524.821472 128.886292,522.700684 131.711517,520.492798 
z"/>
<path fill="#E2E1DF" opacity="1.000000" stroke="none" 
	d="
M134.370392,580.037048 
	C137.282272,579.650208 140.558929,579.402954 143.920654,579.511719 
	C140.915558,579.970703 137.825363,580.073669 134.370392,580.037048 
z"/>
<path fill="#E2E1DF" opacity="1.000000" stroke="none" 
	d="
M145.317276,514.423828 
	C144.249466,518.439819 140.426102,517.671143 137.128647,518.110474 
	C139.607193,516.742676 142.278702,515.642700 145.317276,514.423828 
z"/>
<path fill="#DCDBDB" opacity="1.000000" stroke="none" 
	d="
M718.153992,805.381592 
	C720.614990,805.738281 723.251831,806.408630 725.953003,807.433594 
	C723.454895,807.090515 720.892334,806.392883 718.153992,805.381592 
z"/>
<path fill="#DCDBDB" opacity="1.000000" stroke="none" 
	d="
M832.767700,696.665527 
	C829.320374,695.694824 828.713562,693.284851 830.439575,689.996338 
	C831.468506,692.022217 832.132202,694.167053 832.767700,696.665527 
z"/>
<path fill="#DCDBDB" opacity="1.000000" stroke="none" 
	d="
M820.066284,721.549500 
	C819.441406,724.430847 818.655457,727.638123 817.522949,730.930054 
	C818.085938,727.968262 818.995544,724.921814 820.066284,721.549500 
z"/>
<path fill="#FEFEFE" opacity="1.000000" stroke="none" 
	d="
M587.934204,142.516342 
	C587.685059,137.869232 587.503052,132.760986 587.591064,127.343018 
	C587.907837,132.040604 587.954590,137.047897 587.934204,142.516342 
z"/>
<path fill="#E2E1DF" opacity="1.000000" stroke="none" 
	d="
M271.998779,520.001221 
	C272.185669,520.001099 272.372528,520.001038 272.839630,520.004517 
	C271.967010,522.599182 270.814117,525.190369 269.348267,527.934692 
	C269.927368,525.614014 270.819458,523.140259 271.855774,520.333252 
	C272.000000,520.000000 271.998779,520.001221 271.998779,520.001221 
z"/>
<path fill="#FEFEFE" opacity="1.000000" stroke="none" 
	d="
M338.052673,167.480103 
	C338.303375,171.467865 338.485992,175.914429 338.395203,180.665741 
	C338.076080,176.626633 338.030365,172.282776 338.052673,167.480103 
z"/>
<path fill="#FEFEFE" opacity="1.000000" stroke="none" 
	d="
M587.939819,161.520386 
	C587.691284,157.865448 587.510864,153.753326 587.599854,149.336288 
	C587.915466,153.041977 587.961670,157.052612 587.939819,161.520386 
z"/>
<path fill="#DCDBDB" opacity="1.000000" stroke="none" 
	d="
M830.521362,688.367065 
	C827.064819,688.449402 827.157837,686.022766 827.799194,683.203369 
	C828.850586,684.655945 829.627014,686.339844 830.521362,688.367065 
z"/>
<path fill="#E2E1DF" opacity="1.000000" stroke="none" 
	d="
M152.658478,513.138428 
	C151.042633,513.802979 149.074341,514.381653 146.978943,514.601318 
	C148.669907,513.845825 150.487976,513.449158 152.658478,513.138428 
z"/>
<path fill="#E2E1DF" opacity="1.000000" stroke="none" 
	d="
M126.191483,578.328308 
	C127.963112,578.414185 129.935791,578.802124 131.959824,579.486450 
	C130.138306,579.398621 128.265411,579.014465 126.191483,578.328308 
z"/>
<path fill="#FEFEFE" opacity="1.000000" stroke="none" 
	d="
M876.911682,505.520081 
	C876.658020,502.519104 876.498596,499.071198 876.607910,495.326813 
	C876.919739,498.377960 876.962830,501.725525 876.911682,505.520081 
z"/>
<path fill="#DCDBDB" opacity="1.000000" stroke="none" 
	d="
M724.672363,749.081421 
	C723.487610,750.325867 721.971313,751.630371 720.072510,752.902100 
	C721.240295,751.626648 722.790588,750.384033 724.672363,749.081421 
z"/>
<path fill="#E2E1DF" opacity="1.000000" stroke="none" 
	d="
M118.010803,573.364197 
	C119.873718,574.173462 121.876244,575.294922 123.912483,576.776855 
	C122.014267,575.983643 120.082344,574.830017 118.010803,573.364197 
z"/>
<path fill="#DCDBDB" opacity="1.000000" stroke="none" 
	d="
M704.157654,788.332031 
	C704.948364,789.554138 705.682678,791.123657 706.188477,792.854004 
	C705.340393,791.569702 704.720825,790.124634 704.157654,788.332031 
z"/>
<path fill="#DCDBDB" opacity="1.000000" stroke="none" 
	d="
M814.549133,736.070923 
	C814.214355,737.293579 813.592651,738.645325 812.633057,740.010498 
	C812.950806,738.749207 813.606506,737.474609 814.549133,736.070923 
z"/>
<path fill="#FEFEFE" opacity="1.000000" stroke="none" 
	d="
M338.059204,226.470016 
	C338.304230,229.142944 338.482239,232.263672 338.393188,235.676682 
	C338.081512,232.951920 338.036865,229.934860 338.059204,226.470016 
z"/>
<path fill="#FEFEFE" opacity="1.000000" stroke="none" 
	d="
M719.941284,225.530243 
	C719.693909,222.859344 719.513428,219.740723 719.597107,216.327866 
	C719.910278,219.049927 719.959290,222.066223 719.941284,225.530243 
z"/>
<path fill="#E2E1DF" opacity="1.000000" stroke="none" 
	d="
M174.995026,419.565796 
	C174.611160,419.989655 174.222153,420.015900 173.540756,420.037384 
	C173.179901,418.236603 173.111435,416.440613 173.127838,414.316956 
	C173.805084,415.715607 174.397476,417.441864 174.995026,419.565796 
z"/>
<path fill="#E2E1DF" opacity="1.000000" stroke="none" 
	d="
M185.236572,549.794495 
	C183.685150,548.223877 183.116409,546.649475 186.397476,546.000244 
	C186.331635,547.188843 185.914078,548.392639 185.236572,549.794495 
z"/>
<path fill="#E2E1DF" opacity="1.000000" stroke="none" 
	d="
M175.207916,564.590820 
	C175.745728,563.487610 176.575806,562.283997 177.753403,561.059814 
	C177.234009,562.189697 176.367111,563.340027 175.207916,564.590820 
z"/>
<path fill="#DCDBDB" opacity="1.000000" stroke="none" 
	d="
M824.911255,676.693970 
	C823.976196,675.889160 823.008362,674.758057 822.059692,673.259094 
	C823.012146,674.050049 823.945374,675.208862 824.911255,676.693970 
z"/>
<path fill="#E2E1DF" opacity="1.000000" stroke="none" 
	d="
M190.361221,434.061646 
	C191.050125,433.443787 192.032333,432.782043 193.141815,432.456787 
	C192.397552,433.201447 191.526031,433.609589 190.361221,434.061646 
z"/>
<path fill="#DCDBDB" opacity="1.000000" stroke="none" 
	d="
M813.225220,662.898926 
	C812.239624,662.407776 811.104675,661.667847 809.956299,660.550415 
	C810.987244,660.998718 812.031555,661.824463 813.225220,662.898926 
z"/>
<path fill="#FFFFFF" opacity="1.000000" stroke="none" 
	d="
M704.076294,249.461456 
	C704.321228,251.475052 704.501648,253.925720 704.436646,256.664124 
	C704.131348,254.600723 704.071533,252.249619 704.076294,249.461456 
z"/>
<path fill="#FEFEFE" opacity="1.000000" stroke="none" 
	d="
M769.064880,710.459778 
	C769.304871,712.486816 769.478882,714.951294 769.389526,717.691772 
	C769.083740,715.610901 769.041321,713.254028 769.064880,710.459778 
z"/>
<path fill="#E2E1DF" opacity="1.000000" stroke="none" 
	d="
M273.930481,517.868774 
	C271.215057,516.851685 272.351135,515.944397 274.442566,515.042847 
	C274.540619,515.862732 274.298462,516.737549 273.930481,517.868774 
z"/>
<path fill="#DCDBDB" opacity="1.000000" stroke="none" 
	d="
M771.421753,793.165588 
	C771.879517,792.224548 772.637512,791.163391 773.759460,790.076538 
	C773.322876,791.049011 772.522400,792.047241 771.421753,793.165588 
z"/>
<path fill="#E2E1DF" opacity="1.000000" stroke="none" 
	d="
M265.340820,533.016846 
	C265.715027,532.090088 266.375793,531.045532 267.399963,529.993408 
	C267.051361,530.956970 266.339355,531.928040 265.340820,533.016846 
z"/>
<path fill="#DCDBDB" opacity="1.000000" stroke="none" 
	d="
M711.601196,760.855103 
	C711.287720,761.818237 710.693848,762.912415 709.738342,764.018311 
	C710.024780,763.015381 710.672791,762.000732 711.601196,760.855103 
z"/>
<path fill="#FEFEFE" opacity="1.000000" stroke="none" 
	d="
M769.052917,736.443604 
	C769.291077,737.837219 769.460632,739.651550 769.374512,741.717712 
	C769.073975,740.267761 769.029175,738.566040 769.052917,736.443604 
z"/>
<path fill="#DCDBDB" opacity="1.000000" stroke="none" 
	d="
M804.825439,680.424805 
	C805.778503,680.847717 806.880005,681.557983 807.979614,682.662048 
	C806.976440,682.274597 805.975098,681.493408 804.825439,680.424805 
z"/>
<path fill="#DCDBDB" opacity="1.000000" stroke="none" 
	d="
M819.908142,669.699036 
	C819.010986,669.220581 818.025330,668.439209 817.039795,667.280518 
	C817.966553,667.734131 818.893127,668.565125 819.908142,669.699036 
z"/>
<path fill="#FEFEFE" opacity="1.000000" stroke="none" 
	d="
M338.050537,158.441605 
	C338.289062,159.835373 338.459991,161.650238 338.375824,163.717926 
	C338.074799,162.268082 338.028839,160.565384 338.050537,158.441605 
z"/>
<path fill="#DCDBDB" opacity="1.000000" stroke="none" 
	d="
M708.989746,798.328735 
	C709.770813,798.631348 710.633118,799.201050 711.308716,800.100403 
	C710.438354,799.818604 709.754639,799.207275 708.989746,798.328735 
z"/>
<path fill="#DCDBDB" opacity="1.000000" stroke="none" 
	d="
M814.073975,690.305359 
	C814.681702,690.779968 815.332153,691.571594 815.975708,692.719849 
	C815.351440,692.258484 814.734009,691.440430 814.073975,690.305359 
z"/>
<path fill="#DCDBDB" opacity="1.000000" stroke="none" 
	d="
M708.662842,765.027283 
	C708.587769,765.887085 708.217896,766.875671 707.515076,767.939697 
	C707.577454,767.062073 707.972717,766.109070 708.662842,765.027283 
z"/>
<path fill="#DCDBDB" opacity="1.000000" stroke="none" 
	d="
M822.025269,672.620605 
	C821.404541,672.190125 820.697205,671.456238 819.994019,670.362854 
	C820.644897,670.774658 821.291809,671.545959 822.025269,672.620605 
z"/>
<path fill="#DCDBDB" opacity="1.000000" stroke="none" 
	d="
M706.993896,795.341003 
	C707.609009,795.805054 708.284546,796.583801 708.948547,797.726318 
	C708.309448,797.278625 707.681946,796.467163 706.993896,795.341003 
z"/>
<path fill="#DCDBDB" opacity="1.000000" stroke="none" 
	d="
M816.028076,665.685364 
	C815.245239,665.388428 814.372253,664.826477 813.678955,663.932861 
	C814.551697,664.207581 815.244873,664.813965 816.028076,665.685364 
z"/>
<path fill="#DCDBDB" opacity="1.000000" stroke="none" 
	d="
M799.942871,677.319580 
	C800.828430,677.453674 801.854858,677.883728 802.934326,678.673706 
	C802.019409,678.560913 801.051575,678.088257 799.942871,677.319580 
z"/>
<path fill="#E2E1DF" opacity="1.000000" stroke="none" 
	d="
M267.722290,366.148987 
	C267.353149,366.652435 266.695312,367.084900 266.013733,367.242981 
	C266.471161,366.671722 266.952362,366.374847 267.722290,366.148987 
z"/>
<path fill="#E2E1DF" opacity="1.000000" stroke="none" 
	d="
M273.054291,367.617493 
	C272.177429,367.576538 271.162567,367.231720 270.068665,366.549988 
	C270.965179,366.579926 271.940735,366.946747 273.054291,367.617493 
z"/>
<path fill="#FEFEFE" opacity="1.000000" stroke="none" 
	d="
M261.070221,483.431152 
	C261.300079,484.513062 261.465149,486.003693 261.383362,487.730530 
	C261.092804,486.591095 261.049133,485.215485 261.070221,483.431152 
z"/>
<path fill="#E2E1DF" opacity="1.000000" stroke="none" 
	d="
M165.256485,572.642578 
	C165.565369,571.988831 166.149658,571.319397 166.897552,570.898804 
	C166.551407,571.640747 166.041656,572.133850 165.256485,572.642578 
z"/>
<path fill="#E2E1DF" opacity="1.000000" stroke="none" 
	d="
M119.663155,531.031799 
	C119.483192,531.895813 119.003532,532.885620 118.155006,533.895386 
	C118.311913,532.996094 118.837685,532.076843 119.663155,531.031799 
z"/>
<path fill="#FEFEFE" opacity="1.000000" stroke="none" 
	d="
M876.927429,434.585266 
	C876.703613,433.805054 876.545166,432.633698 876.625671,431.247589 
	C876.907288,432.086609 876.950012,433.140350 876.927429,434.585266 
z"/>
<path fill="#DCDBDB" opacity="1.000000" stroke="none" 
	d="
M713.871948,802.958130 
	C714.385559,802.995789 715.121155,803.182983 715.912903,803.723755 
	C715.344055,803.754150 714.719055,803.430908 713.871948,802.958130 
z"/>
<path fill="#DCDBDB" opacity="1.000000" stroke="none" 
	d="
M711.715698,801.069336 
	C712.256348,801.163086 712.900574,801.457703 713.363892,802.087280 
	C712.728455,802.038147 712.273865,801.654175 711.715698,801.069336 
z"/>
<path fill="#DCDBDB" opacity="1.000000" stroke="none" 
	d="
M761.400391,801.063965 
	C761.737549,800.510376 762.395996,799.902527 763.433472,799.428589 
	C763.115662,800.044922 762.418701,800.527283 761.400391,801.063965 
z"/>
<path fill="#E2E1DF" opacity="1.000000" stroke="none" 
	d="
M194.511322,432.623230 
	C194.801285,432.134399 195.353699,431.622467 196.019409,431.458496 
	C195.679749,432.071045 195.226776,432.335602 194.511322,432.623230 
z"/>
<path fill="#FEFEFE" opacity="1.000000" stroke="none" 
	d="
M876.942200,471.586853 
	C876.714111,470.804657 876.552673,469.631012 876.633362,468.243896 
	C876.919922,469.085419 876.964417,470.140442 876.942200,471.586853 
z"/>
<path fill="#FEFEFE" opacity="1.000000" stroke="none" 
	d="
M876.946899,490.587097 
	C876.717651,489.805206 876.556763,488.632050 876.636230,487.244629 
	C876.922852,488.085541 876.969055,489.140686 876.946899,490.587097 
z"/>
<path fill="#FEFEFE" opacity="1.000000" stroke="none" 
	d="
M338.039734,152.410736 
	C338.272400,153.193649 338.437408,154.368378 338.359680,155.757385 
	C338.068634,154.915283 338.020355,153.858917 338.039734,152.410736 
z"/>
<path fill="#DCDBDB" opacity="1.000000" stroke="none" 
	d="
M818.125244,698.272705 
	C818.604431,698.546204 819.019531,699.108032 819.219604,699.834229 
	C818.690063,699.519409 818.375610,699.040161 818.125244,698.272705 
z"/>
<path fill="#E2E1DF" opacity="1.000000" stroke="none" 
	d="
M181.400024,556.931274 
	C181.320511,556.394836 181.525711,555.748474 182.055237,555.123657 
	C182.147949,555.703857 181.916336,556.262573 181.400024,556.931274 
z"/>
<path fill="#FEFEFE" opacity="1.000000" stroke="none" 
	d="
M587.946533,176.587036 
	C587.717468,175.805908 587.557617,174.633636 587.637329,173.245850 
	C587.923218,174.085541 587.969482,175.140717 587.946533,176.587036 
z"/>
<path fill="#DCDBDB" opacity="1.000000" stroke="none" 
	d="
M819.275879,702.255127 
	C819.695801,702.534363 820.089294,703.089844 820.281616,703.809265 
	C819.803528,703.492554 819.526550,703.011963 819.275879,702.255127 
z"/>
<path fill="#E2E1DF" opacity="1.000000" stroke="none" 
	d="
M173.728943,399.154846 
	C173.911285,399.638153 173.840820,400.282532 173.494232,400.968750 
	C173.304123,400.445740 173.390121,399.880829 173.728943,399.154846 
z"/>
<path fill="#FEFEFE" opacity="1.000000" stroke="none" 
	d="
M587.927673,122.611847 
	C587.709412,122.119003 587.557373,121.261078 587.633789,120.217842 
	C587.906128,120.770607 587.950012,121.508690 587.927673,122.611847 
z"/>
<path fill="#FEFEFE" opacity="1.000000" stroke="none" 
	d="
M587.943359,168.612808 
	C587.721619,168.118912 587.566956,167.259552 587.642578,166.215485 
	C587.918823,166.769623 587.964661,167.508484 587.943359,168.612808 
z"/>
<path fill="#FEFEFE" opacity="1.000000" stroke="none" 
	d="
M876.927002,424.611511 
	C876.709595,424.119781 876.556946,423.263031 876.631470,422.220184 
	C876.903076,422.771545 876.947449,423.509033 876.927002,424.611511 
z"/>
<path fill="#E2E1DF" opacity="1.000000" stroke="none" 
	d="
M202.425690,386.391907 
	C202.642532,386.906708 202.633667,387.469727 202.624802,388.032776 
	C202.435074,387.831360 202.245346,387.629974 202.031921,387.144318 
	C202.008209,386.860077 202.199982,386.440186 202.425690,386.391907 
z"/>
<path fill="#E2E1DF" opacity="1.000000" stroke="none" 
	d="
M240.222900,417.774658 
	C240.271561,417.402649 240.556564,417.081177 240.944489,416.940582 
	C241.007904,417.486908 240.811859,417.721466 240.222900,417.774658 
z"/>
<path fill="#FEFEFE" opacity="1.000000" stroke="none" 
	d="
M338.056610,147.345428 
	C338.280548,147.586685 338.404510,148.144821 338.315216,148.839386 
	C338.053528,148.537979 338.005096,148.100143 338.056610,147.345428 
z"/>
<path fill="#FEFEFE" opacity="1.000000" stroke="none" 
	d="
M876.937866,474.741699 
	C876.772766,474.718475 876.669495,474.456360 876.721130,474.109619 
	C876.876099,474.025024 876.999695,474.502808 876.937866,474.741699 
z"/>
<path fill="#FEFEFE" opacity="1.000000" stroke="none" 
	d="
M769.106750,681.262939 
	C769.334778,681.197815 769.495911,681.353271 769.609802,681.538025 
	C769.636597,681.581482 769.503601,681.723328 769.290771,681.896484 
	C769.137451,681.973083 769.022644,681.494263 769.106750,681.262939 
z"/>
<path fill="#FEFEFE" opacity="1.000000" stroke="none" 
	d="
M587.922913,108.740616 
	C587.752869,108.729774 587.641357,108.479477 587.671265,108.133545 
	C587.812683,108.037903 587.981506,108.501152 587.922913,108.740616 
z"/>
<path fill="#FFFFFF" opacity="1.000000" stroke="none" 
	d="
M704.061890,157.259781 
	C704.309509,157.198929 704.470337,157.359451 704.585144,157.548004 
	C704.609741,157.588318 704.467590,157.730209 704.245972,157.903015 
	C704.046021,157.817551 704.002319,157.654373 704.061890,157.259781 
z"/>
<path fill="#FEFEFE" opacity="1.000000" stroke="none" 
	d="
M261.076447,490.260223 
	C261.246735,490.270538 261.358429,490.519989 261.329285,490.865417 
	C261.188446,490.961365 261.017853,490.499390 261.076447,490.260223 
z"/>
<path fill="#E2E1DF" opacity="1.000000" stroke="none" 
	d="
M237.659790,418.602417 
	C237.553009,418.375275 237.645508,418.076416 237.873779,417.956177 
	C238.009567,418.134796 237.859070,418.530701 237.659790,418.602417 
z"/>
<path fill="#FEFEFE" opacity="1.000000" stroke="none" 
	d="
M876.917053,402.739746 
	C876.749146,402.728638 876.639587,402.479034 876.670044,402.134155 
	C876.810181,402.038879 876.975342,402.501251 876.917053,402.739746 
z"/>
<path fill="#161615" opacity="1.000000" stroke="none" 
	d="
M430.030182,500.020599 
	C469.801086,486.145294 492.441101,456.693878 505.785034,418.811249 
	C510.032928,406.751678 513.260315,394.332611 516.885925,382.306030 
	C519.073792,390.305878 521.205688,398.884247 523.773743,407.330017 
	C529.315186,425.554565 536.691467,442.966400 547.787781,458.593689 
	C566.432983,484.852356 592.714844,498.950470 623.449524,505.901459 
	C624.531860,506.146240 625.611694,506.401917 628.037415,506.964325 
	C621.506714,508.737915 616.206726,510.074249 610.967346,511.616821 
	C575.234375,522.137207 549.967407,544.517883 534.913147,578.585693 
	C527.495667,595.371460 521.318176,612.536743 517.682068,630.562073 
	C517.560730,631.163574 517.248352,631.726624 516.736511,633.057922 
	C512.513000,614.019104 506.565063,596.409973 499.004639,579.288696 
	C481.474640,539.590393 450.732330,516.805359 408.843719,508.024750 
	C408.204254,507.890717 407.564758,507.756622 406.169586,507.464081 
	C414.461029,504.873993 422.058044,502.500854 430.030182,500.020599 
z"/>
<path fill="#E2E1DF" opacity="1.000000" stroke="none" 
	d="
M272.000610,520.000000 
	C271.877869,519.857849 271.754517,519.715698 271.631195,519.573608 
	C271.717194,519.623291 271.803192,519.672974 271.943970,519.861938 
	C271.998779,520.001221 272.000000,520.000000 272.000610,520.000000 
z"/>
<path fill="#DCDBDB" opacity="1.000000" stroke="none" 
	d="
M819.283386,743.420776 
	C819.065735,743.295471 818.861206,743.109924 818.656616,742.924438 
	C818.842163,742.935120 819.027771,742.945740 819.316223,743.152039 
	C819.419128,743.347717 819.296509,743.360535 819.283386,743.420776 
z"/>
</svg>