<?xml version="1.0"?>
<svg width="1024" height="1024" xmlns="http://www.w3.org/2000/svg" xmlns:svg="http://www.w3.org/2000/svg" enable-background="new 0 0 1024 1024" version="1.1" xml:space="preserve">
 <g class="layer">
  <title>Layer 1</title>
  <path d="m525.63,657.78c-1.84,15.23 -3.46,30.07 -5.4,44.86c-0.25,1.87 -2.14,4.88 -3.46,4.99c-3.18,0.25 -3.38,-2.71 -3.49,-5.37c-1.38,-34.3 -8.31,-67.26 -24.63,-97.74c-20.78,-38.81 -50.87,-67.13 -93.11,-81.57c-23.73,-8.11 -48.2,-11.56 -73.15,-12.48c-1.55,-0.06 -4.09,-1.98 -4.35,-3.37c-0.6,-3.31 2.25,-3.25 4.69,-3.37c30.4,-1.49 60.13,-6.12 88.13,-18.81c30.99,-14.05 54.19,-36.72 71.81,-65.4c16,-26.06 24.47,-54.7 28.18,-84.86c1.06,-8.53 1.46,-17.14 2.53,-25.67c0.27,-2.11 2.02,-4.02 3.08,-6.02c1.29,2.02 3.64,4.02 3.7,6.08c0.61,24.81 4.81,48.95 12.93,72.39c13.12,37.84 34.88,69.29 68.53,91.79c18.48,12.36 38.93,20.2 60.64,24.33c14.47,2.75 29.21,4.1 43.79,6.31c1.69,0.26 3.13,2.07 4.69,3.16c-1.68,1.09 -3.3,3.03 -5.05,3.15c-41.84,2.99 -81.77,11.55 -115.5,38.71c-28.91,23.26 -47.52,53.41 -58.99,88.29c-2.17,6.62 -3.65,13.46 -5.57,20.6m-95.97,-157.65c-7.6,2.37 -15.2,4.74 -23.49,7.33c1.39,0.3 2.03,0.43 2.67,0.56c41.89,8.79 72.63,31.57 90.16,71.27c7.57,17.12 13.51,34.73 17.74,53.77c0.51,-1.33 0.82,-1.9 0.94,-2.5c3.64,-18.02 9.82,-35.19 17.23,-51.97c15.06,-34.07 40.32,-56.45 76.06,-66.97c5.24,-1.55 10.54,-2.88 17.07,-4.66c-2.43,-0.56 -3.51,-0.81 -4.59,-1.06c-30.74,-6.95 -57.02,-21.05 -75.66,-47.31c-11.1,-15.62 -18.47,-33.04 -24.02,-51.26c-2.56,-8.45 -4.7,-17.02 -6.88,-25.02c-3.63,12.02 -6.86,24.44 -11.1,36.5c-13.35,37.88 -35.99,67.34 -76.13,81.32z" fill="#f3efec" id="svg_3" opacity="1" transform="matrix(1 0 0 1 0 0)"/>
  <path d="m583.83,862.97c-0.83,10.63 -6.01,19.16 -13.6,26.09c-12.12,11.05 -26.32,16.06 -42.87,13.17c-15.66,-2.73 -23.88,-17.64 -18.64,-33.16c5.88,-17.4 18.99,-26.62 36.16,-31.05c6.85,-1.77 13.44,-0.82 20.01,1.25c1.2,0.38 2.45,0.64 4.16,1.08c0,-6.34 0,-12.15 0,-17.96c0,-21.65 0,-43.3 -0.01,-64.96c0,-5.89 -0.4,-6.26 -5.86,-4.59c-30.42,9.34 -60.82,18.78 -91.27,28.04c-3.49,1.07 -4.02,3.12 -4.01,6.29c0.08,32.15 -0.7,64.32 0.29,96.45c0.73,23.32 -16.13,40.65 -31.86,46.87c-9.07,3.59 -18.4,5.28 -28.14,3.37c-16.79,-3.3 -25.11,-18.29 -19.65,-35.02c7.1,-21.8 35.36,-39.07 59.6,-29.66c1.05,0.4 2.13,0.69 3.93,1.26c0,-2.24 0,-3.97 0,-5.71c-0.04,-39.15 -0.02,-78.3 -0.19,-117.44c-0.02,-5.2 1.61,-8.29 6.8,-9.88c38.79,-11.84 77.52,-23.85 116.28,-35.76c5.16,-1.58 6.94,-0.56 8.68,5.33c-0.42,1.33 -0.62,1.98 -0.62,2.64c-0.01,49.86 -0.02,99.72 0.02,149.59c0,1.25 0.52,2.51 0.79,3.76z" fill="#f3efec" id="svg_4" opacity="1"/>
  <path d="m587.87,142.98c0.05,1.73 0.11,3.46 -0.18,5.93c-0.18,4.84 0,8.96 0.18,13.07c0.06,1.08 0.12,2.17 -0.14,3.84c-0.16,1.44 -0.01,2.3 0.15,3.16c0.06,1.08 0.11,2.17 -0.15,3.87c-0.17,1.78 -0.01,2.96 0.15,4.13c0.06,0.46 0.11,0.92 -0.19,2.02c-0.46,1.3 -0.66,1.95 -0.66,2.59c-0.02,22.38 -0.03,44.75 0.02,67.12c0,1.09 0.5,2.17 0.77,3.26c-0.55,12.05 -6.5,21.48 -15.49,28.71c-10.92,8.79 -23.41,13.14 -37.84,10.57c-16.23,-2.89 -25.27,-18.34 -17.97,-36.17c7.49,-18.31 33.19,-33.32 53.62,-24.43c0.72,0.31 1.59,0.27 2.65,0.43c0.1,-1.3 0.26,-2.42 0.26,-3.53c0.01,-23.3 0.01,-46.61 -0.01,-69.91c-0.01,-5.39 -0.93,-6.16 -6.21,-4.67c-29.21,8.27 -58.42,16.6 -87.6,24.98c-1.47,0.43 -2.73,1.59 -4.49,3.06c-0.52,1.3 -0.71,1.95 -0.71,2.6c-0.01,29.86 -0.02,59.73 0.02,89.59c0,1.26 0.5,2.51 0.77,3.77c-0.38,11.32 -5.97,20.28 -14.01,27.38c-10.75,9.5 -23.41,14.48 -38.21,12.71c-20.02,-2.41 -29.79,-18.66 -21.92,-37.3c6.72,-15.93 19.42,-24.92 36.07,-27.47c7.36,-1.13 15.16,0.58 23.15,1.03c0.01,-0.23 0.15,-1.81 0.15,-3.39c-0.02,-35.63 -0.02,-71.26 -0.14,-106.88c-0.01,-4.88 1.18,-7.75 6.6,-9.19c37.29,-9.87 74.49,-20.1 111.7,-30.26c4.23,-1.16 7.9,-1.28 9.51,4.16c-0.08,0.72 0.03,0.97 0.14,1.22c0.06,3.38 0.12,6.76 -0.14,10.78c-0.16,1.5 -0.01,2.36 0.14,3.22c0.06,1.08 0.11,2.17 -0.18,3.96c-0.18,5.82 0.01,10.93 0.19,16.04z" fill="#f3efec" id="svg_5" opacity="1"/>
  <path d="m774.83,536.97c-0.38,10.86 -5.54,19.66 -12.76,27.14c-10.85,11.22 -24.41,16.88 -40.04,16.37c-20.63,-0.68 -31.23,-16.4 -24.62,-35.92c7.5,-22.13 35.32,-37.75 58.07,-29.34c1.28,0.47 2.8,0.31 4.69,-0.2c0.58,-1.63 0.8,-2.61 0.8,-3.59c0.02,-37.4 0.03,-74.81 -0.02,-112.22c0,-1.39 -0.59,-2.79 -0.91,-4.19c2.15,-1.94 3.98,-4.85 6.49,-5.67c27.59,-8.95 55.28,-17.58 82.95,-26.28c5.93,-1.87 11.86,-3.72 17.83,-5.46c6.4,-1.87 9.62,0.52 9.63,7.05c0.02,12.15 0.01,24.3 -0.2,37.01c-0.1,0.81 0.01,1.06 0.12,1.31c0.05,6.04 0.11,12.08 -0.15,18.78c-0.15,1.5 0,2.36 0.15,3.22c0.06,1.73 0.11,3.46 -0.15,5.84c-0.16,1.81 -0.01,2.99 0.15,4.16c0.06,10.71 0.12,21.41 -0.14,32.8c-0.17,1.85 -0.01,3.02 0.16,4.2c0.05,0.46 0.11,0.91 -0.07,1.79c-0.14,0.69 -0.04,0.95 0.07,1.21c0.05,3.71 0.11,7.43 -0.16,11.81c-0.16,1.84 0,3.02 0.16,4.19c0.06,1.08 0.11,2.17 -0.18,3.95c-0.2,4.14 -0.04,7.59 0.12,11.04c-0.03,11.39 -5.02,20.71 -12.61,28.66c-9.65,10.1 -21.53,15.67 -35.71,15.45c-19.42,-0.3 -30.22,-15.4 -24.14,-33.84c6.7,-20.29 32.26,-36.41 53.95,-28.88c1.01,0.35 2.39,-0.39 3.98,-1.31c0.48,-1.34 0.68,-1.99 0.68,-2.63c0.02,-23.91 0.03,-47.81 -0.02,-71.71c0,-1.23 -0.58,-2.47 -0.89,-3.7c-1.82,-0.55 -3.92,-1.99 -5.42,-1.52c-25.81,8.07 -51.56,16.35 -77.28,24.71c-1.59,0.52 -2.84,2.07 -4.64,3.8c-0.5,1.3 -0.69,1.95 -0.69,2.6c-0.02,31.87 -0.02,63.74 0.02,95.61c0,1.25 0.51,2.5 0.78,3.76z" fill="#f3efec" id="svg_6" opacity="1"/>
  <path d="m273.19,367.92c0.57,0.74 1.15,1.48 1.31,2.69c-0.77,3.18 -1.44,5.89 -1.45,8.6c-0.09,19.33 -0.05,38.65 -0.05,57.98c0.01,4.21 0.01,8.42 0.05,12.63c0.06,7.53 0.17,15.06 0.23,22.58c0.06,8.28 -0.07,16.56 0.2,24.83c0.17,5.26 0.94,10.5 1.43,15.74c0.02,0.46 0.03,0.91 -0.39,1.74c-2.17,1.23 -3.3,2.14 -0.72,3.42c-0.03,0.48 -0.06,0.96 -0.67,1.65c-0.76,0.22 -0.94,0.22 -1.19,0.08c-0.14,-0.19 -0.22,-0.24 -0.31,-0.29c0.12,0.15 0.25,0.29 0.23,0.76c-1.04,2.81 -1.93,5.28 -2.82,7.76c-0.27,0.51 -0.54,1.02 -1.41,1.72c-1.25,1.24 -1.91,2.28 -2.58,3.32c-8.69,9.94 -19.53,15.15 -32.82,14.03c-15.88,-1.33 -23.6,-13.76 -18.66,-29c5.2,-16.03 25.01,-30.65 43.84,-25.3c1.03,0.3 2.41,-0.67 3.85,-1.57c0.1,-0.77 -0.01,-1.02 -0.12,-1.27c-0.06,-0.46 -0.11,-0.92 0.16,-1.95c0.17,-2.07 0,-3.56 -0.16,-5.05c-0.06,-0.46 -0.11,-0.92 0.19,-2.02c0.45,-21.73 0.55,-42.81 0.59,-63.89c0,-0.71 -0.65,-1.42 -1,-2.13c0,0 -0.21,-0.28 -0.1,-0.84c-1.1,-1.72 -2.16,-3.56 -3.55,-3.86c-1.7,-0.37 -4.39,-0.07 -5.4,1.06c-2.49,2.8 -8.08,0.19 -8.88,5.38c-0.43,0.11 -0.86,0.21 -1.72,0.18c-0.71,0.18 -1,0.5 -1.28,0.82c-0.44,0.1 -0.88,0.2 -1.78,0.18c-0.56,0.18 -0.66,0.48 -0.75,0.77c-0.21,0.08 -0.43,0.15 -1.1,-0.18c-0.86,-0.64 -1.36,-1.18 -1.65,-1.08c-12.16,3.9 -24.3,7.84 -36.41,11.9c-0.53,0.18 -0.66,1.56 -0.98,2.39c-0.19,0.06 -0.39,0.13 -1,-0.19c-0.97,0.11 -1.52,0.62 -2.07,1.14c-0.16,0.07 -0.31,0.15 -0.85,-0.15c-1.37,0.28 -2.35,0.94 -3.33,1.61c0,0 -0.05,-0.09 -0.39,-0.08c-1.25,1.4 -2.9,2.75 -2.96,4.17c-0.21,5.09 0.2,10.21 0.21,15.31c0.03,11.51 0.01,23.01 -0.07,34.52c-0.09,14.05 -0.32,28.1 -0.36,42.15c-0.01,4.61 0.37,9.23 0.57,13.85c-0.04,0.44 -0.08,0.88 -0.57,1.65c-3.38,0.97 -2.81,2.54 -1.52,4.31c-0.71,1.57 -1.41,3.14 -2.68,4.91c-0.77,0.85 -0.98,1.49 -1.18,2.14c-0.81,1.25 -1.62,2.5 -3.07,3.89c-1.47,1.35 -2.3,2.56 -3.13,3.76c-2.4,2.09 -4.8,4.17 -7.69,6.11c-1.08,0.52 -1.66,1.19 -2.25,1.86c-0.75,0.45 -1.51,0.9 -2.8,1.13c-5.52,1.25 -10.49,2.69 -15.43,4.25c-0.39,0.13 -0.51,1.13 -0.76,1.73c-0.44,0.06 -0.88,0.12 -1.74,-0.22c-3.69,-0.15 -6.97,0.1 -10.24,0.35c-0.45,0.01 -0.9,0.03 -1.72,-0.33c-2.35,-0.77 -4.33,-1.16 -6.3,-1.54c-0.59,-0.12 -1.18,-0.23 -1.94,-0.98c-2.17,-1.76 -4.18,-2.88 -6.18,-4c-0.35,-0.02 -0.61,-0.18 -0.84,-1.09c-0.98,-3.6 -1.05,-7.4 -2.98,-9.43c-3.48,-3.67 -2.07,-7.32 -1.79,-11.18c0.06,-0.74 -0.76,-1.55 -1.18,-2.33c-0.01,-0.45 -0.01,-0.9 0.4,-1.76c2.11,-4.38 3.8,-8.36 5.49,-12.34c0.03,-0.33 0.15,-0.61 0.96,-0.95c1.07,-1.08 1.55,-2.07 2.03,-3.06c1.11,-1.25 2.21,-2.5 3.99,-3.84c4.05,-1.27 8.01,-1.77 8.07,-6.66c1.41,-0.81 2.81,-1.62 4.76,-2.23c3.65,-0.51 7.47,0.26 8.9,-3.88c0.2,-0.06 0.39,-0.12 1,0.24c2.39,-0.16 4.36,-0.74 6.33,-1.32c2.04,-0.05 4.08,-0.09 6.56,0.3c2.06,2.26 7.21,3.27 10.46,2.41c1.13,-0.12 2.26,-0.25 3.95,-0.91c0.71,-2.33 0.99,-4.13 0.99,-5.93c0.03,-29.71 0.03,-59.42 0.03,-89.52c-0.6,-2.13 -1.19,-3.85 -1.79,-5.58c-0.05,-4.02 -0.1,-8.04 0.21,-12.56c0.42,-1.15 0.49,-1.79 0.56,-2.44c0.46,-0.93 0.93,-1.87 2.12,-2.89c9.24,-0.97 16.97,-3.89 23.91,-8.87c0.44,-0.09 0.89,-0.17 1.69,-0.03c0.55,0.43 0.74,0.63 0.92,0.83c0.01,-0.56 0.02,-1.12 0.03,-1.69c0.2,-0.07 0.39,-0.15 1.01,0.17c1.46,0.45 2.59,0.79 3.53,0.51c8.36,-2.54 16.67,-5.25 25.03,-7.78c5.49,-1.66 11.17,-2.76 16.53,-4.76c5.25,-1.97 10.19,-4.76 15.26,-7.19c0.44,-0.1 0.87,-0.19 1.67,-0.03c1.02,-0.18 1.67,-0.61 2.33,-1.04c0.44,-0.05 0.88,-0.11 1.73,0.25c1.42,0.76 2.44,1.11 3.45,1.45z" fill="#f3efec" id="svg_7" opacity="1"/>
  <path d="m273.86,767.97c-1.22,12.26 -7.79,21.54 -16.73,29.31c-12.67,11.03 -27.68,15.53 -44.18,13.5c-17.04,-2.1 -25.72,-20.18 -18.53,-37.53c8.92,-21.53 33.55,-35.92 58.59,-28.62c1.41,0.4 2.86,0.64 4.95,1.1c0.18,-2.33 0.48,-4.38 0.48,-6.42c-0.09,-40.16 -0.22,-80.31 -0.33,-120.46c-0.01,-5.85 2.96,-9.31 8.19,-8.63c2.24,0.29 5.62,2.01 6.15,3.78c4.88,16.29 17.32,25.69 30.39,34.68c15.15,10.42 25.87,23.99 29.53,42.42c4.15,20.91 -0.41,39.66 -14.17,56.05c-1.18,1.39 -2.51,2.69 -3.96,3.8c-2.15,1.66 -4.43,4.03 -7.29,1.36c-2.81,-2.61 -2.05,-5.29 -0.27,-8.43c3.39,-5.97 7.31,-11.95 9.13,-18.46c7.78,-27.81 -6.45,-51.95 -34.42,-59.39c-2,-0.53 -4.14,-0.52 -6.87,-0.3c-0.94,2.05 -1.47,3.64 -1.47,5.23c-0.05,30.75 -0.05,61.51 0,92.26c0,1.59 0.53,3.17 0.81,4.75z" fill="#f3efec" id="svg_8" opacity="1" transform="matrix(1 0 0 1 0 0)"/>
  <path d="m704.1,160.02c-0.06,-0.46 -0.13,-0.91 0.06,-1.78c0.31,-0.51 0.45,-0.65 0.43,-0.69c-0.12,-0.19 -0.28,-0.35 -0.42,-0.52c0.6,-4.66 4.28,-5.77 7.86,-5.78c3.49,0 6.21,2.27 6.88,5.99c2.35,13.18 9.78,23.25 19.41,31.98c7.49,6.79 15.52,13.07 22.5,20.35c21.2,22.1 20.29,61.66 -1.63,82.55c-1.78,1.7 -4.41,3.52 -6.63,3.51c-3.42,-0.02 -4.37,-5.05 -1.85,-8.77c5.76,-8.53 8.94,-17.71 9.49,-28.18c1.07,-20.55 -13.2,-37.23 -30.52,-42.7c-3.04,-0.96 -6.12,-3.94 -9.94,-0.01c-0.23,3.77 -0.05,6.89 0.13,10.01c0.06,1.08 0.12,2.17 -0.18,3.96c-0.47,1.36 -0.67,2 -0.67,2.65c-0.01,26.88 -0.02,53.75 0.02,80.62c0.01,1.26 0.52,2.51 0.79,3.76c-0.37,11.66 -6.04,20.97 -14.16,28.52c-10.65,9.91 -23.54,15.1 -38.36,14.52c-23.37,-0.91 -32.45,-18.82 -24.97,-38.54c6.19,-16.3 26.76,-30.41 44.23,-30.26c5.65,0.04 11.28,1.83 17.49,2.92c0,-12.07 0,-24.16 0.31,-37c0.13,-3.2 -0.05,-5.65 -0.23,-8.11c-0.06,-3.05 -0.11,-6.1 0.19,-9.91c0.17,-8.54 -0.02,-16.31 -0.2,-24.09c-0.06,-1.08 -0.12,-2.17 0.19,-3.96c0.44,-16.91 0.54,-33.11 0.59,-49.31c0,-0.58 -0.53,-1.15 -0.81,-1.73z" fill="#f3efec" id="svg_9" opacity="1"/>
  <path d="m769.19,681.03c-0.05,-20.43 -0.08,-40.85 -0.15,-61.28c-0.02,-4.49 2.61,-6.75 6.62,-7.17c3.58,-0.37 6.98,1.2 7.27,5.07c1.41,18.81 12.28,31.45 26.82,42.63c1.35,1.39 2.49,2.13 3.62,2.87c0,0 0.32,0.14 0.23,0.63c0.77,1.05 1.65,1.61 2.52,2.17c0.35,0.03 0.61,0.19 0.85,1.1c1.06,1.39 2.04,2.17 3.03,2.95c0,0 0,0 -0.01,0.36c0.71,1.1 1.41,1.83 2.12,2.56c0,0 -0.09,0.06 -0.08,0.39c0.98,1.45 1.95,2.58 2.91,3.71c1.01,1.75 2.02,3.5 2.8,5.84c-0.58,3.16 -0.68,5.59 2.9,5.85c0.08,0.19 0.16,0.37 -0.16,0.98c-1.77,3.59 -1.16,6 2.26,7.33c0.07,0.74 0.14,1.49 -0.14,2.83c-0.46,7.1 -0.56,13.62 -0.66,20.13c0,0.45 0,0.9 -0.37,1.72c-3.43,6.72 -6.47,13.07 -9.52,19.43c-0.66,0.77 -1.33,1.55 -2.42,2.08c-0.6,-0.26 -0.79,-0.27 -0.97,-0.29c0.2,0.19 0.41,0.38 0.61,0.56c-1.49,0.82 -2.99,1.64 -4.48,2.46c-0.91,-1.72 -1.82,-3.44 -2.27,-5.55c1.07,-1.74 1.69,-3.1 2.32,-4.45c0.67,-1.44 1.34,-2.87 2.52,-4.7c1.3,-3.6 2.08,-6.81 2.87,-10.02c-0.08,-0.24 -0.13,-0.49 0.32,-1.07c3.69,-5.22 3.31,-11.72 -0.33,-14.17c-0.06,-0.44 -0.13,-0.89 0.04,-1.83c-0.17,-1.06 -0.56,-1.62 -0.96,-2.17c-0.09,-0.44 -0.18,-0.87 -0.07,-1.81c-0.21,-1.06 -0.63,-1.62 -1.04,-2.19c-0.71,-1.4 -1.41,-2.81 -2.16,-4.92c-0.7,-1.49 -1.35,-2.28 -2,-3.07c-1.94,-2.11 -3.87,-4.21 -5.93,-7.02c-1.22,-1.41 -2.32,-2.12 -3.42,-2.83c-0.51,-0.2 -1.01,-0.39 -1.65,-1.2c-1.18,-1.06 -2.2,-1.49 -3.23,-1.92c-1.39,-0.62 -2.79,-1.24 -4.49,-2.36c-0.32,-0.98 -0.21,-1.87 -0.38,-1.92c-2.82,-0.92 -5.67,-1.8 -8.57,-2.43c-0.25,-0.05 -0.9,1.74 -1.37,2.67c0,0 0.01,0.02 -0.34,0.06c-1.02,1.11 -2.21,2.14 -2.26,3.23c-0.28,6.16 -0.42,12.34 -0.36,18.52c0.1,9.21 0.62,18.43 0.59,27.64c-0.04,14.21 -0.42,28.41 -0.52,42.61c-0.01,0.99 1.15,1.98 1.77,2.97c0.02,0.44 0.05,0.88 -0.31,1.69c-2.42,5.71 -4.47,11.06 -6.52,16.4c-0.78,1.23 -1.56,2.46 -2.99,3.85c-1.41,1.21 -2.17,2.27 -2.93,3.34c-2.25,1.97 -4.51,3.95 -7.42,5.97c-1.3,0.64 -1.96,1.25 -2.62,1.86c0,0 -0.06,-0.1 -0.4,-0.09c-0.84,0.01 -1.4,-0.14 -1.82,0.03c-9.13,3.74 -18.3,7.15 -28.5,5.08c-0.63,-0.13 -1.56,1.17 -2.35,1.8c-0.44,0 -0.89,0 -1.73,-0.43c-3.03,-1.1 -5.67,-1.77 -8.3,-2.44c-0.58,-0.15 -1.16,-0.3 -1.93,-1.07c-0.93,-0.82 -1.66,-1 -2.4,-1.19c0,0 -0.29,-0.12 -0.2,-0.59c-0.55,-0.76 -1.19,-1.06 -1.84,-1.35c0,0 -0.31,-0.14 -0.21,-0.62c-0.77,-1.05 -1.63,-1.62 -2.49,-2.19c0,0 0.08,-0.05 0.06,-0.37c-0.69,-1.11 -1.36,-1.88 -2.04,-2.66c-0.29,-0.47 -0.59,-0.95 -0.7,-1.88c-0.55,-2.03 -1.28,-3.6 -2.02,-5.17c-0.05,-0.44 -0.1,-0.88 0.12,-1.92c0.79,-5.5 1.29,-10.4 1.8,-15.3c0.23,-0.69 0.46,-1.39 1.2,-2.49c0.89,-1.39 1.26,-2.38 1.63,-3.37c0,0 0.12,-0.48 0.63,-0.69c1.1,-1.3 1.7,-2.39 2.29,-3.49c2.39,-2.56 4.78,-5.13 7.87,-7.74c2.22,-1.35 3.74,-2.65 5.25,-3.96c0.84,-0.61 1.67,-1.23 3.23,-1.62c1.04,0.29 1.45,0.52 1.67,0.4c11.35,-6.1 23.03,-5.52 34.92,-1.93c0.92,0.28 2.12,-0.38 3.2,-0.61c0.31,-0.86 0.62,-1.71 1.27,-3.18c0.17,-2.43 0,-4.24 -0.17,-6.06c-0.05,-5.71 -0.11,-11.42 0.18,-17.87c0.18,-3.2 0,-5.66 -0.17,-8.13c-0.05,-9.04 -0.11,-18.08 0.08,-27.66c0.29,-0.64 0.43,-0.78 0.4,-0.82c-0.11,-0.19 -0.28,-0.34 -0.42,-0.51z" fill="#f3efec" id="svg_10" opacity="1"/>
  <path d="m338.16,147.03c1.27,-4.78 4.19,-6.9 8.83,-6.21c4.35,0.65 6.91,3.25 6.92,7.68c0.06,37.78 1.11,75.6 -0.39,113.32c-0.83,20.58 -14.58,33.97 -33.74,41.09c-14.5,5.39 -28.31,4.3 -41.32,-4.87c-14.86,-10.48 -15.21,-31.25 -2.68,-44.22c15.57,-16.15 35.33,-20.2 56.14,-11.71c1.64,0.67 3.28,1.35 6.04,2.48c0,-3.03 0,-5.39 0.35,-8.48c0.17,-3.85 -0.01,-6.97 -0.18,-10.09c-0.06,-1.08 -0.12,-2.17 0.18,-3.96c0.47,-12.08 0.61,-23.46 0.64,-34.83c0.01,-1.41 -0.54,-2.81 -0.83,-4.21c-0.05,-0.46 -0.11,-0.91 0.19,-2.02c0.18,-5.09 -0.01,-9.53 -0.19,-13.98c-0.06,-0.76 -0.11,-1.53 0.17,-2.93c0.17,-2.44 0,-4.25 -0.17,-6.07c-0.06,-0.46 -0.12,-0.91 0.15,-1.92c0.17,-1.73 0,-2.91 -0.16,-4.08c-0.06,-0.77 -0.12,-1.53 0.12,-2.81c0.17,-1.07 0.05,-1.62 -0.07,-2.18z" fill="#f3efec" id="svg_11" opacity="1"/>
  <path d="m372.32,829.69c-21.85,-9.56 -42.63,-20.26 -61.46,-34.41c-5.29,-3.98 -6.38,-9.15 -3.02,-13.56c3.52,-4.61 7.92,-4.95 13.77,-0.84c25.74,18.14 53.5,32.21 83.62,41.51c3.29,1.01 6.66,1.79 10,2.65c5.44,1.4 8.07,5.84 6.68,11.32c-1.08,4.26 -6.42,7.51 -10.92,6.09c-12.82,-4.04 -25.56,-8.35 -38.67,-12.76z" fill="#f3efec" id="svg_12" opacity="1"/>
  <path d="m227.91,685.59c-6.39,6.47 -11.75,5.81 -16.1,-1.52c-15.81,-26.62 -26.59,-55.22 -33.57,-85.31c-1.31,-5.66 1.04,-10.45 5.59,-11.67c5.82,-1.56 10.45,1.13 11.7,7.49c5.79,29.2 17.17,56.15 32,81.83c1.32,2.29 0.43,5.86 0.38,9.18z" fill="#f3efec" id="svg_13" opacity="1"/>
  <path d="m622.41,839.5c-6.27,0.62 -10.29,-2.14 -11.31,-7.32c-0.77,-3.86 2.11,-8.19 6.47,-10.01c16.46,-6.85 32.92,-13.72 49.35,-20.65c5.97,-2.51 10.76,-1.26 13.02,3.61c2.36,5.07 0.63,9.66 -5.5,12.32c-17.16,7.45 -34.44,14.59 -52.03,22.05z" fill="#f3efec" id="svg_14" opacity="1"/>
  <path d="m836.11,592.13c0.97,-4.42 1.74,-8.47 2.86,-12.41c1.44,-5.03 5.89,-7.68 10.55,-6.6c4.62,1.07 7.31,5.63 6.31,10.8c-3.65,18.95 -9.36,37.27 -16.86,55.04c-2.37,5.64 -6.75,7.73 -11.9,5.7c-4.73,-1.87 -6.35,-6.92 -4.41,-12.51c4.56,-13.17 8.94,-26.4 13.45,-40.02z" fill="#f3efec" id="svg_15" opacity="1"/>
  <path d="m643.21,202.78c-8.54,-3.05 -16.7,-6.04 -24.92,-8.83c-5.3,-1.81 -8.38,-6.49 -7.16,-11.39c1.24,-4.97 6.5,-8.32 11.71,-6.29c16.22,6.3 32.31,12.94 48.29,19.81c4.76,2.04 6.02,6.74 4.13,11.21c-2.29,5.42 -7.22,7.21 -12.58,4.65c-6.36,-3.04 -12.74,-6.01 -19.47,-9.16z" fill="#f3efec" id="svg_16" opacity="1"/>
  <path d="m232.1,340.15c-2.57,4.99 -4.9,9.69 -7.43,14.28c-2.82,5.14 -7.75,6.75 -12.44,4.27c-4.59,-2.42 -6.12,-7.44 -3.14,-12.55c8.2,-14.08 16.54,-28.08 25.1,-41.94c3.35,-5.43 8.5,-6.4 13.1,-3.25c4.51,3.09 4.73,7.71 1.06,13.36c-5.48,8.42 -10.75,16.98 -16.25,25.83z" fill="#f3efec" id="svg_17" opacity="1"/>
  <path d="m799.6,340.45c-5.65,-9.17 -11.05,-18.04 -16.54,-26.87c-3.12,-5.01 -2.41,-10.02 2,-13.01c4.13,-2.79 9.69,-1.92 12.57,2.87c8.37,13.96 16.53,28.06 24.4,42.3c3.04,5.51 1.31,10.07 -3.61,12.45c-4.95,2.39 -9.59,0.48 -12.43,-5.13c-2.07,-4.1 -4.12,-8.2 -6.39,-12.61z" fill="#f3efec" id="svg_18" opacity="1"/>
  <path d="m429.66,191.91c-13.02,4.13 -25.68,8.11 -38.25,12.33c-5.96,2 -10.31,0.43 -12.49,-5.03c-1.95,-4.89 -0.21,-9.19 5.49,-11.2c13.73,-4.83 27.58,-9.33 41.43,-13.78c3.64,-1.16 8.21,1.88 9.71,5.89c1.69,4.51 -0.33,8.82 -5.89,11.79z" fill="#f3efec" id="svg_19" opacity="1"/>
  <path d="m275.08,512.59c-0.66,-4.86 -1.43,-10.1 -1.6,-15.36c-0.27,-8.27 -0.14,-16.55 -0.2,-24.83c-0.06,-7.52 -0.17,-15.05 -0.23,-22.58c-0.04,-4.21 -0.04,-8.42 -0.05,-12.63c0,-19.33 -0.04,-38.65 0.05,-57.98c0.01,-2.71 0.68,-5.42 1.39,-8.23c0.57,18.65 0.84,37.4 0.99,56.15c0.22,26.4 0.37,52.81 0.49,79.21c0.01,1.96 -0.44,3.92 -0.84,6.25z" fill="#f3efec" id="svg_20" opacity="1"/>
  <path d="m783.98,767.61c-0.73,-0.59 -1.89,-1.58 -1.88,-2.57c0.1,-14.2 0.48,-28.4 0.52,-42.61c0.03,-9.21 -0.49,-18.43 -0.59,-27.64c-0.06,-6.18 0.08,-12.36 0.36,-18.52c0.05,-1.09 1.24,-2.12 2.25,-3.23c0.15,20.55 -0.04,41.15 -0.23,61.76c-0.1,10.8 -0.2,21.61 -0.43,32.81z" fill="#f3efec" id="svg_21" opacity="1"/>
  <path d="m187.38,543.78c-0.51,-4.37 -0.89,-8.99 -0.88,-13.6c0.04,-14.05 0.27,-28.1 0.36,-42.15c0.08,-11.51 0.1,-23.01 0.07,-34.52c-0.01,-5.1 -0.42,-10.22 -0.21,-15.31c0.06,-1.42 1.71,-2.77 3,-4.14c0,1.9 -0.7,3.78 -0.7,5.66c-0.07,29.16 0.01,58.32 -0.11,87.47c-0.02,5.45 -0.8,10.89 -1.53,16.59z" fill="#f3efec" id="svg_22" opacity="1"/>
  <path d="m583.95,862.57c-0.39,-0.85 -0.91,-2.11 -0.91,-3.36c-0.04,-49.87 -0.03,-99.73 -0.02,-149.59c0,-0.66 0.2,-1.31 0.57,-2.27c0.37,17.81 0.51,35.93 0.59,54.05c0.13,31.77 0.24,63.54 0.33,95.31c0,1.82 -0.28,3.64 -0.56,5.86z" fill="#f3efec" id="svg_23" opacity="1"/>
  <path d="m175,419.96c0,29.71 0,59.42 -0.03,89.13c0,1.8 -0.28,3.6 -0.76,5.67c-0.58,-18.63 -0.89,-37.54 -1.06,-56.46c-0.11,-12.44 -0.03,-24.89 0.32,-37.8c0.75,-0.48 1.14,-0.51 1.53,-0.54z" fill="#f3efec" id="svg_24" opacity="1"/>
  <path d="m759.82,395.33c0.54,1.09 1.13,2.49 1.13,3.88c0.05,37.41 0.04,74.82 0.02,112.22c0,0.98 -0.22,1.96 -0.61,3.25c-0.39,-20 -0.52,-40.31 -0.6,-60.61c-0.08,-19.48 -0.11,-38.95 0.06,-58.74z" fill="#f3efec" id="svg_25" opacity="1"/>
  <path d="m263.64,367.31c-4.7,2.41 -9.64,5.2 -14.89,7.17c-5.36,2 -11.04,3.1 -16.53,4.76c-8.36,2.53 -16.67,5.24 -25.03,7.78c-0.94,0.28 -2.07,-0.06 -3.22,-0.46c19.25,-6.43 38.6,-12.52 57.95,-18.61c0.47,-0.15 0.9,-0.41 1.72,-0.64z" fill="#f3efec" id="svg_26" opacity="1"/>
  <path d="m274,767.52c-0.42,-1.13 -0.95,-2.71 -0.95,-4.3c-0.05,-30.75 -0.05,-61.51 0,-92.26c0,-1.59 0.53,-3.18 1.18,-5.07c0.31,26.07 0.27,52.44 0.18,78.81c-0.02,7.46 -0.17,14.91 -0.41,22.82z" fill="#f3efec" id="svg_27" opacity="1"/>
  <path d="m774.94,536.51c-0.38,-0.8 -0.89,-2.05 -0.89,-3.3c-0.04,-31.87 -0.04,-63.74 -0.02,-95.61c0,-0.65 0.19,-1.3 0.57,-2.26c0.33,33.37 0.39,67.04 0.34,101.17z" fill="#f3efec" id="svg_28" opacity="1"/>
  <path d="m474.92,276.51c-0.37,-0.8 -0.87,-2.05 -0.87,-3.31c-0.04,-29.86 -0.03,-59.73 -0.02,-89.59c0,-0.65 0.19,-1.3 0.56,-2.27c0.33,31.37 0.38,63.04 0.33,95.17z" fill="#f3efec" id="svg_29" opacity="1"/>
  <path d="m719.95,316.52c-0.39,-0.8 -0.9,-2.05 -0.91,-3.31c-0.04,-26.87 -0.03,-53.74 -0.02,-80.62c0,-0.65 0.2,-1.29 0.58,-2.25c0.34,28.37 0.41,57.04 0.35,86.18z" fill="#f3efec" id="svg_30" opacity="1"/>
  <path d="m197.69,431.56c-0.05,-0.69 0.08,-2.07 0.61,-2.25c12.11,-4.06 24.25,-8 36.41,-11.9c0.29,-0.1 0.79,0.44 1.31,1.04c-12.57,4.56 -25.26,8.77 -38.33,13.11z" fill="#f3efec" id="svg_31" opacity="1"/>
  <path d="m767.64,745.17c-0.7,0.32 -1.9,0.98 -2.82,0.7c-11.89,-3.59 -23.57,-4.17 -34.92,1.93c-0.22,0.12 -0.63,-0.11 -1.34,-0.39c12.28,-7.41 25.31,-8.16 39.08,-2.24z" fill="#f3efec" id="svg_32" opacity="1"/>
  <path d="m861.98,408.47c0.39,0.77 0.97,2.01 0.97,3.24c0.05,23.9 0.04,47.8 0.02,71.71c0,0.64 -0.2,1.29 -0.59,2.25c-0.34,-25.38 -0.41,-51.05 -0.4,-77.2z" fill="#f3efec" id="svg_33" opacity="1"/>
  <path d="m728.37,808.15c0.43,-0.84 1.36,-2.14 1.99,-2.01c10.2,2.07 19.37,-1.34 28.5,-5.08c0.42,-0.17 0.98,-0.02 1.87,0c-9.56,6.25 -20.27,9.02 -32.36,7.09z" fill="#f3efec" id="svg_34" opacity="1"/>
  <path d="m587.94,251.51c-0.39,-0.63 -0.89,-1.71 -0.89,-2.8c-0.05,-22.37 -0.04,-44.74 -0.02,-67.12c0,-0.64 0.2,-1.29 0.57,-2.25c0.34,23.7 0.39,47.71 0.34,72.17z" fill="#f3efec" id="svg_35" opacity="1"/>
  <path d="m260.79,415.43c0.48,0.26 1.13,0.97 1.13,1.68c-0.04,21.08 -0.14,42.16 -0.51,63.55c-0.43,-21.39 -0.59,-43.08 -0.62,-65.23z" fill="#f3efec" id="svg_36" opacity="1"/>
  <path d="m199.63,387.24c-6.56,4.97 -14.29,7.89 -23.22,8.76c6.74,-2.67 13.92,-5.33 21.08,-8.01c0.6,-0.22 1.18,-0.49 2.14,-0.75z" fill="#f3efec" id="svg_37" opacity="1"/>
  <path d="m704.03,160.48c0.35,0.12 0.88,0.69 0.88,1.27c-0.05,16.2 -0.15,32.4 -0.51,48.91c-0.33,-16.37 -0.39,-33.04 -0.37,-50.18z" fill="#f3efec" id="svg_38" opacity="1"/>
  <path d="m110.88,549.38c0.62,0.42 1.44,1.23 1.38,1.97c-0.28,3.86 -1.69,7.51 1.79,11.18c1.93,2.03 2,5.83 2.91,9.2c-6.53,-5.84 -7.97,-13.47 -6.08,-22.35z" fill="#f3efec" id="svg_39" opacity="1"/>
  <path d="m832.15,719.65c-0.11,-6.18 -0.01,-12.7 0.41,-19.43c0.15,6.22 -0.03,12.66 -0.41,19.43z" fill="#f3efec" id="svg_40" opacity="1"/>
  <path d="m243.36,416.71c0.43,-5.18 6.02,-2.57 8.51,-5.37c1.01,-1.13 3.7,-1.43 5.4,-1.06c1.39,0.3 2.45,2.14 3.62,3.7c-1.79,-0.11 -3.69,-1.35 -5.25,-1.01c-4.05,0.87 -7.95,2.44 -12.28,3.74z" fill="#f3efec" id="svg_41" opacity="1"/>
  <path d="m822.37,740.99c2.73,-6.22 5.77,-12.57 9.12,-18.96c-2.73,6.24 -5.77,12.53 -9.12,18.96z" fill="#f3efec" id="svg_42" opacity="1"/>
  <path d="m820.16,706.44c3.7,1.99 4.08,8.49 0.45,13.53c-0.44,-4.26 -0.48,-8.66 -0.45,-13.53z" fill="#f3efec" id="svg_43" opacity="1"/>
  <path d="m338.05,183.48c0.36,0.94 0.91,2.34 0.9,3.75c-0.03,11.37 -0.17,22.75 -0.55,34.43c-0.32,-12.36 -0.37,-25.04 -0.35,-38.18z" fill="#f3efec" id="svg_44" opacity="1"/>
  <path d="m146.38,579.82c-0.14,-0.65 -0.02,-1.65 0.37,-1.78c4.94,-1.56 9.91,-3 15.1,-4.18c-4.89,2.2 -9.98,4.1 -15.47,5.96z" fill="#f3efec" id="svg_45" opacity="1"/>
  <path d="m777.36,785.96c1.73,-5.2 3.78,-10.55 6.12,-15.94c-1.73,5.24 -3.76,10.52 -6.12,15.94z" fill="#f3efec" id="svg_46" opacity="1"/>
  <path d="m705.92,771.02c-0.3,4.64 -0.8,9.54 -1.55,14.7c0.28,-4.63 0.81,-9.53 1.55,-14.7z" fill="#f3efec" id="svg_47" opacity="1"/>
  <path d="m116.65,535.07c-1.37,3.83 -3.06,7.81 -5.08,11.86c1.37,-3.85 3.07,-7.78 5.08,-11.86z" fill="#f3efec" id="svg_48" opacity="1"/>
  <path d="m785.4,672.88c0.06,-0.83 0.71,-2.62 0.96,-2.57c2.9,0.63 5.75,1.51 8.57,2.43c0.17,0.05 0.06,0.94 0.08,1.76c-3.06,-0.36 -6.13,-1.04 -9.61,-1.62z" fill="#f3efec" id="svg_49" opacity="1"/>
  <path d="m169.82,515.62c-3.04,1.17 -8.19,0.16 -9.81,-2.02c3.19,0.33 6.4,1.02 9.81,2.02z" fill="#f3efec" id="svg_50" opacity="1"/>
  <path d="m704.06,215.49c0.25,7.31 0.44,15.08 0.35,23.17c-0.32,-7.37 -0.37,-15.04 -0.35,-23.17z" fill="#f3efec" id="svg_51" opacity="1"/>
  <path d="m131.71,520.49c0.25,4.81 -3.71,5.31 -7.47,6.46c2.13,-2.13 4.65,-4.25 7.47,-6.46z" fill="#f3efec" id="svg_52" opacity="1"/>
  <path d="m134.37,580.04c2.91,-0.39 6.19,-0.64 9.55,-0.53c-3,0.46 -6.09,0.56 -9.55,0.53z" fill="#f3efec" id="svg_53" opacity="1"/>
  <path d="m145.32,514.42c-1.07,4.02 -4.89,3.25 -8.19,3.69c2.48,-1.37 5.15,-2.47 8.19,-3.69z" fill="#f3efec" id="svg_54" opacity="1"/>
  <path d="m718.15,805.38c2.46,0.36 5.1,1.03 7.8,2.05c-2.5,-0.34 -5.06,-1.04 -7.8,-2.05z" fill="#f3efec" id="svg_55" opacity="1"/>
  <path d="m832.77,696.67c-3.45,-0.98 -4.06,-3.39 -2.33,-6.67c1.03,2.02 1.69,4.17 2.33,6.67z" fill="#f3efec" id="svg_56" opacity="1"/>
  <path d="m820.07,721.55c-0.63,2.88 -1.41,6.09 -2.55,9.38c0.57,-2.96 1.48,-6.01 2.55,-9.38z" fill="#f3efec" id="svg_57" opacity="1"/>
  <path d="m587.93,142.52c-0.24,-4.65 -0.43,-9.76 -0.34,-15.18c0.32,4.7 0.36,9.71 0.34,15.18z" fill="#f3efec" id="svg_58" opacity="1"/>
  <path d="m272,520c0.19,0 0.37,0 0.84,0c-0.87,2.6 -2.03,5.19 -3.49,7.93c0.58,-2.32 1.47,-4.79 2.51,-7.6c0.14,-0.33 0.14,-0.33 0.14,-0.33z" fill="#f3efec" id="svg_59" opacity="1"/>
  <path d="m338.05,167.48c0.25,3.99 0.44,8.43 0.35,13.19c-0.32,-4.04 -0.37,-8.39 -0.35,-13.19z" fill="#f3efec" id="svg_60" opacity="1"/>
  <path d="m587.94,161.52c-0.25,-3.65 -0.43,-7.77 -0.34,-12.18c0.32,3.7 0.36,7.71 0.34,12.18z" fill="#f3efec" id="svg_61" opacity="1"/>
  <path d="m830.52,688.37c-3.46,0.08 -3.36,-2.35 -2.72,-5.17c1.05,1.46 1.83,3.14 2.72,5.17z" fill="#f3efec" id="svg_62" opacity="1"/>
  <path d="m152.66,513.14c-1.62,0.66 -3.59,1.24 -5.68,1.46c1.69,-0.75 3.51,-1.15 5.68,-1.46z" fill="#f3efec" id="svg_63" opacity="1"/>
  <path d="m126.19,578.33c1.77,0.08 3.75,0.47 5.77,1.16c-1.82,-0.09 -3.69,-0.48 -5.77,-1.16z" fill="#f3efec" id="svg_64" opacity="1"/>
  <path d="m876.91,505.52c-0.25,-3 -0.41,-6.45 -0.3,-10.19c0.31,3.05 0.35,6.4 0.3,10.19z" fill="#f3efec" id="svg_65" opacity="1"/>
  <path d="m724.67,749.08c-1.18,1.25 -2.7,2.55 -4.6,3.82c1.17,-1.27 2.72,-2.52 4.6,-3.82z" fill="#f3efec" id="svg_66" opacity="1"/>
  <path d="m118.01,573.36c1.86,0.81 3.87,1.93 5.9,3.42c-1.9,-0.8 -3.83,-1.95 -5.9,-3.42z" fill="#f3efec" id="svg_67" opacity="1"/>
  <path d="m704.16,788.33c0.79,1.22 1.52,2.79 2.03,4.52c-0.85,-1.28 -1.47,-2.73 -2.03,-4.52z" fill="#f3efec" id="svg_68" opacity="1"/>
  <path d="m814.55,736.07c-0.34,1.22 -0.96,2.58 -1.92,3.94c0.32,-1.26 0.98,-2.54 1.92,-3.94z" fill="#f3efec" id="svg_69" opacity="1"/>
  <path d="m338.06,226.47c0.24,2.67 0.42,5.79 0.33,9.21c-0.31,-2.73 -0.35,-5.75 -0.33,-9.21z" fill="#f3efec" id="svg_70" opacity="1"/>
  <path d="m719.94,225.53c-0.25,-2.67 -0.43,-5.79 -0.34,-9.2c0.31,2.72 0.36,5.74 0.34,9.2z" fill="#f3efec" id="svg_71" opacity="1"/>
  <path d="m175,419.57c-0.39,0.42 -0.78,0.45 -1.46,0.47c-0.36,-1.8 -0.43,-3.6 -0.41,-5.72c0.68,1.4 1.27,3.12 1.87,5.25z" fill="#f3efec" id="svg_72" opacity="1"/>
  <path d="m185.24,549.79c-1.55,-1.57 -2.12,-3.14 1.16,-3.79c-0.07,1.19 -0.49,2.39 -1.16,3.79z" fill="#f3efec" id="svg_73" opacity="1"/>
  <path d="m175.21,564.59c0.54,-1.1 1.37,-2.31 2.54,-3.53c-0.52,1.13 -1.38,2.28 -2.54,3.53z" fill="#f3efec" id="svg_74" opacity="1"/>
  <path d="m824.91,676.69c-0.93,-0.8 -1.9,-1.93 -2.85,-3.43c0.95,0.79 1.89,1.95 2.85,3.43z" fill="#f3efec" id="svg_75" opacity="1"/>
  <path d="m190.36,434.06c0.69,-0.62 1.67,-1.28 2.78,-1.6c-0.74,0.74 -1.61,1.15 -2.78,1.6z" fill="#f3efec" id="svg_76" opacity="1"/>
  <path d="m813.23,662.9c-0.99,-0.49 -2.13,-1.23 -3.27,-2.35c1.03,0.45 2.07,1.27 3.27,2.35z" fill="#f3efec" id="svg_77" opacity="1"/>
  <path d="m704.08,249.46c0.24,2.02 0.42,4.47 0.36,7.2c-0.31,-2.06 -0.37,-4.41 -0.36,-7.2z" fill="#f3efec" id="svg_78" opacity="1"/>
  <path d="m769.06,710.46c0.24,2.03 0.42,4.49 0.33,7.23c-0.31,-2.08 -0.35,-4.44 -0.33,-7.23z" fill="#f3efec" id="svg_79" opacity="1"/>
  <path d="m273.93,517.87c-2.71,-1.02 -1.58,-1.93 0.51,-2.83c0.1,0.82 -0.14,1.7 -0.51,2.83z" fill="#f3efec" id="svg_80" opacity="1"/>
  <path d="m771.42,793.17c0.46,-0.95 1.22,-2.01 2.34,-3.09c-0.44,0.97 -1.24,1.97 -2.34,3.09z" fill="#f3efec" id="svg_81" opacity="1"/>
  <path d="m265.34,533.02c0.38,-0.93 1.04,-1.97 2.06,-3.03c-0.35,0.97 -1.06,1.94 -2.06,3.03z" fill="#f3efec" id="svg_82" opacity="1"/>
  <path d="m711.6,760.86c-0.31,0.96 -0.91,2.05 -1.86,3.16c0.28,-1 0.93,-2.02 1.86,-3.16z" fill="#f3efec" id="svg_83" opacity="1"/>
  <path d="m769.05,736.44c0.24,1.4 0.41,3.21 0.32,5.28c-0.3,-1.45 -0.34,-3.15 -0.32,-5.28z" fill="#f3efec" id="svg_84" opacity="1"/>
  <path d="m804.83,680.42c0.95,0.43 2.05,1.14 3.15,2.24c-1,-0.39 -2,-1.17 -3.15,-2.24z" fill="#f3efec" id="svg_85" opacity="1"/>
  <path d="m819.91,669.7c-0.9,-0.48 -1.88,-1.26 -2.87,-2.42c0.93,0.45 1.85,1.29 2.87,2.42z" fill="#f3efec" id="svg_86" opacity="1"/>
  <path d="m338.05,158.44c0.24,1.4 0.41,3.21 0.33,5.28c-0.31,-1.45 -0.35,-3.15 -0.33,-5.28z" fill="#f3efec" id="svg_87" opacity="1"/>
  <path d="m708.99,798.33c0.78,0.3 1.64,0.87 2.32,1.77c-0.87,-0.28 -1.56,-0.89 -2.32,-1.77z" fill="#f3efec" id="svg_88" opacity="1"/>
  <path d="m814.07,690.31c0.61,0.47 1.26,1.26 1.91,2.41c-0.63,-0.46 -1.25,-1.28 -1.91,-2.41z" fill="#f3efec" id="svg_89" opacity="1"/>
  <path d="m708.66,765.03c-0.07,0.86 -0.44,1.85 -1.14,2.91c0.06,-0.88 0.45,-1.83 1.14,-2.91z" fill="#f3efec" id="svg_90" opacity="1"/>
  <path d="m822.03,672.62c-0.63,-0.43 -1.33,-1.16 -2.04,-2.26c0.65,0.41 1.3,1.19 2.04,2.26z" fill="#f3efec" id="svg_91" opacity="1"/>
  <path d="m706.99,795.34c0.62,0.47 1.29,1.24 1.96,2.39c-0.64,-0.45 -1.27,-1.26 -1.96,-2.39z" fill="#f3efec" id="svg_92" opacity="1"/>
  <path d="m816.03,665.69c-0.78,-0.3 -1.66,-0.86 -2.35,-1.76c0.87,0.28 1.56,0.88 2.35,1.76z" fill="#f3efec" id="svg_93" opacity="1"/>
  <path d="m799.94,677.32c0.89,0.13 1.91,0.56 2.99,1.35c-0.91,-0.11 -1.88,-0.58 -2.99,-1.35z" fill="#f3efec" id="svg_94" opacity="1"/>
  <path d="m267.72,366.15c-0.37,0.5 -1.02,0.93 -1.71,1.09c0.46,-0.57 0.94,-0.87 1.71,-1.09z" fill="#f3efec" id="svg_95" opacity="1"/>
  <path d="m273.05,367.62c-0.87,-0.04 -1.89,-0.39 -2.98,-1.07c0.9,0.03 1.87,0.4 2.98,1.07z" fill="#f3efec" id="svg_96" opacity="1"/>
  <path d="m261.07,483.43c0.23,1.08 0.4,2.57 0.31,4.3c-0.29,-1.14 -0.33,-2.51 -0.31,-4.3z" fill="#f3efec" id="svg_97" opacity="1"/>
  <path d="m165.26,572.64c0.31,-0.65 0.89,-1.32 1.64,-1.74c-0.35,0.74 -0.86,1.23 -1.64,1.74z" fill="#f3efec" id="svg_98" opacity="1"/>
  <path d="m119.66,531.03c-0.18,0.87 -0.66,1.86 -1.5,2.87c0.15,-0.9 0.68,-1.82 1.5,-2.87z" fill="#f3efec" id="svg_99" opacity="1"/>
  <path d="m876.93,434.59c-0.23,-0.78 -0.38,-1.96 -0.3,-3.34c0.28,0.84 0.32,1.89 0.3,3.34z" fill="#f3efec" id="svg_100" opacity="1"/>
  <path d="m713.87,802.96c0.52,0.04 1.25,0.22 2.04,0.76c-0.57,0.03 -1.19,-0.29 -2.04,-0.76z" fill="#f3efec" id="svg_101" opacity="1"/>
  <path d="m711.72,801.07c0.54,0.09 1.18,0.39 1.64,1.02c-0.63,-0.05 -1.09,-0.44 -1.64,-1.02z" fill="#f3efec" id="svg_102" opacity="1"/>
  <path d="m761.4,801.06c0.34,-0.55 1,-1.16 2.03,-1.63c-0.31,0.61 -1.01,1.1 -2.03,1.63z" fill="#f3efec" id="svg_103" opacity="1"/>
  <path d="m194.51,432.62c0.29,-0.49 0.84,-1 1.51,-1.16c-0.34,0.61 -0.79,0.88 -1.51,1.16z" fill="#f3efec" id="svg_104" opacity="1"/>
  <path d="m876.94,471.59c-0.23,-0.79 -0.39,-1.96 -0.31,-3.35c0.29,0.85 0.33,1.9 0.31,3.35z" fill="#f3efec" id="svg_105" opacity="1"/>
  <path d="m876.95,490.59c-0.23,-0.78 -0.39,-1.96 -0.31,-3.35c0.28,0.85 0.33,1.9 0.31,3.35z" fill="#f3efec" id="svg_106" opacity="1"/>
  <path d="m338.04,152.41c0.23,0.78 0.4,1.96 0.32,3.35c-0.29,-0.84 -0.34,-1.9 -0.32,-3.35z" fill="#f3efec" id="svg_107" opacity="1"/>
  <path d="m818.13,698.27c0.47,0.28 0.89,0.84 1.09,1.56c-0.53,-0.31 -0.84,-0.79 -1.09,-1.56z" fill="#f3efec" id="svg_108" opacity="1"/>
  <path d="m181.4,556.93c-0.08,-0.54 0.13,-1.18 0.66,-1.81c0.09,0.58 -0.14,1.14 -0.66,1.81z" fill="#f3efec" id="svg_109" opacity="1"/>
  <path d="m587.95,176.59c-0.23,-0.78 -0.39,-1.96 -0.31,-3.34c0.28,0.84 0.33,1.89 0.31,3.34z" fill="#f3efec" id="svg_110" opacity="1"/>
  <path d="m819.28,702.26c0.42,0.27 0.81,0.83 1,1.55c-0.48,-0.32 -0.75,-0.8 -1,-1.55z" fill="#f3efec" id="svg_111" opacity="1"/>
  <path d="m173.73,399.15c0.18,0.49 0.11,1.13 -0.24,1.82c-0.19,-0.52 -0.1,-1.09 0.24,-1.82z" fill="#f3efec" id="svg_112" opacity="1"/>
  <path d="m587.93,122.61c-0.22,-0.49 -0.37,-1.35 -0.3,-2.39c0.28,0.55 0.32,1.29 0.3,2.39z" fill="#f3efec" id="svg_113" opacity="1"/>
  <path d="m587.94,168.61c-0.22,-0.49 -0.37,-1.35 -0.3,-2.39c0.28,0.55 0.32,1.29 0.3,2.39z" fill="#f3efec" id="svg_114" opacity="1"/>
  <path d="m876.93,424.61c-0.22,-0.49 -0.37,-1.35 -0.3,-2.39c0.27,0.55 0.32,1.29 0.3,2.39z" fill="#f3efec" id="svg_115" opacity="1"/>
  <path d="m202.43,386.39c0.21,0.52 0.2,1.08 0.19,1.64c-0.18,-0.2 -0.37,-0.4 -0.59,-0.89c-0.02,-0.28 0.17,-0.7 0.4,-0.75z" fill="#f3efec" id="svg_116" opacity="1"/>
  <path d="m240.22,417.77c0.05,-0.37 0.34,-0.69 0.72,-0.83c0.07,0.55 -0.13,0.78 -0.72,0.83z" fill="#f3efec" id="svg_117" opacity="1"/>
  <path d="m338.06,147.35c0.22,0.24 0.34,0.79 0.26,1.49c-0.27,-0.3 -0.31,-0.74 -0.26,-1.49z" fill="#f3efec" id="svg_118" opacity="1"/>
  <path d="m876.94,474.74c-0.17,-0.02 -0.27,-0.28 -0.22,-0.63c0.16,-0.08 0.28,0.39 0.22,0.63z" fill="#f3efec" id="svg_119" opacity="1"/>
  <path d="m769.11,681.26c0.22,-0.06 0.39,0.09 0.5,0.28c0.03,0.04 -0.11,0.18 -0.32,0.36c-0.15,0.07 -0.27,-0.41 -0.18,-0.64z" fill="#f3efec" id="svg_120" opacity="1"/>
  <path d="m587.92,108.74c-0.17,-0.01 -0.28,-0.26 -0.25,-0.61c0.14,-0.09 0.31,0.37 0.25,0.61z" fill="#f3efec" id="svg_121" opacity="1"/>
  <path d="m704.06,157.26c0.25,-0.06 0.41,0.1 0.53,0.29c0.02,0.04 -0.12,0.18 -0.34,0.35c-0.2,-0.08 -0.25,-0.25 -0.19,-0.64z" fill="#f3efec" id="svg_122" opacity="1"/>
  <path d="m261.08,490.26c0.17,0.01 0.28,0.26 0.25,0.61c-0.14,0.09 -0.31,-0.37 -0.25,-0.61z" fill="#f3efec" id="svg_123" opacity="1"/>
  <path d="m237.66,418.6c-0.11,-0.22 -0.01,-0.52 0.21,-0.64c0.14,0.17 -0.01,0.57 -0.21,0.64z" fill="#f3efec" id="svg_124" opacity="1"/>
  <path d="m876.92,402.74c-0.17,-0.01 -0.28,-0.26 -0.25,-0.61c0.14,-0.09 0.31,0.37 0.25,0.61z" fill="#f3efec" id="svg_125" opacity="1"/>
  <path d="m272,520c-0.12,-0.14 -0.25,-0.28 -0.37,-0.43c0.09,0.05 0.17,0.1 0.31,0.29c0.06,0.14 0.06,0.14 0.06,0.14z" fill="#f3efec" id="svg_127" opacity="1"/>
  <path d="m819.28,743.42c-0.21,-0.12 -0.42,-0.31 -0.62,-0.5c0.18,0.02 0.37,0.03 0.66,0.23c0.1,0.2 -0.02,0.21 -0.04,0.27z" fill="#f3efec" id="svg_128" opacity="1"/>
 </g>
</svg>